<svg width="275" height="94" viewBox="0 0 275 94" fill="none" xmlns="http://www.w3.org/2000/svg">
<path fill-rule="evenodd" clip-rule="evenodd" d="M166.939 8.89141C220.188 -0.956521 260.017 1.64967 260.017 16.3088C259.815 19.2464 258.668 22.0396 256.749 24.2709C256.749 24.2709 255.072 26.3442 253.238 28.1773C253.021 28.3882 252.808 28.599 252.583 28.8128C252.333 29.0509 252.085 29.2754 251.839 29.4863C247.635 33.1499 243.105 36.4208 238.305 39.2581H228.123V30.722H244.987V21.9195H219.188V49.3695C214.986 51.3374 210.524 53.2935 205.837 55.2262V30.7923H214.442V21.9283H190.48L189.286 30.7923H196.715V58.831C192.5 60.4337 188.141 62.0053 183.639 63.5455L183.385 65.4343C187.933 64.0521 192.378 62.629 196.718 61.1648V69.1591H205.84V57.9788C210.455 56.3077 214.905 54.6034 219.191 52.866V69.1591H244.99V60.3215H228.126V49.0914C229.021 48.7009 229.907 48.3105 230.782 47.92H244.99V40.9682C263.654 31.0119 275 21.1171 275 13.2956C275.015 -2.72523 227.55 -4.35923 166.939 8.89141Z" fill="#2196F3"/>
<path fill-rule="evenodd" clip-rule="evenodd" d="M14.9888 77.3968C14.9888 73.631 17.622 69.3878 22.4173 64.887C23.4028 66.0942 24.5601 67.1499 25.8522 68.0203C28.467 69.6997 31.5236 70.5584 34.6296 70.486C38.4808 70.652 42.2424 69.2939 45.1009 66.7055C46.4118 65.4814 47.4475 63.9921 48.1391 62.3366C48.8307 60.6811 49.1624 58.8973 49.1122 57.1036C49.1295 55.207 48.7404 53.3287 47.9712 51.5954C46.9992 49.6251 45.689 47.841 44.1004 46.3244C43.3777 45.5806 41.2945 43.7709 37.8742 40.9012C35.5367 39.04 33.3349 37.0144 31.2854 34.8395C30.7725 34.1984 30.49 33.4031 30.4837 32.5818C30.4965 32.1658 30.6038 31.7581 30.7975 31.3898C30.9911 31.0214 31.266 30.702 31.6014 30.4558C32.4205 29.7991 33.4493 29.4611 34.4979 29.5042C35.9888 29.6909 37.4138 30.2306 38.6548 31.0785C39.8958 31.9264 40.917 33.0581 41.6339 34.3798L48.2783 28.5085C46.3622 26.1058 44.017 24.0802 41.3618 22.5347C39.2806 21.4621 36.9734 20.9029 34.6325 20.9037C31.2117 20.8087 27.8923 22.072 25.3987 24.4177C24.2086 25.4722 23.2582 26.7698 22.6117 28.2231C21.9652 29.6765 21.6375 31.2516 21.6508 32.8424C21.7118 35.2859 22.4936 37.6568 23.8978 39.6566C26.7796 43.3213 30.1311 46.5901 33.8659 49.3786C34.2316 49.6715 34.5769 49.9643 34.9076 50.2396C13.3387 61.0363 0 71.9619 0 80.4481C0 96.4514 47.462 98.0825 108.07 84.8406C54.8028 94.6563 14.9888 92.0501 14.9888 77.3968ZM21.6157 63.8592L21.6362 63.8855L21.6157 63.8592ZM40.2705 57.4755C40.2609 58.0792 40.1149 58.6728 39.8433 59.212C39.5717 59.7511 39.1816 60.2216 38.7023 60.5882C37.6143 61.5 36.2293 61.9794 34.8109 61.9353C33.7723 61.8938 32.7548 61.6292 31.8274 61.1593C30.9 60.6894 30.0845 60.0252 29.4363 59.212C32.0958 57.3085 35.0889 55.3758 38.3834 53.4285C38.6334 53.6936 38.8688 53.9722 39.0885 54.2631C39.8207 55.1769 40.2356 56.3046 40.2705 57.4755ZM35.7033 50.9043L35.6799 50.8867L35.7033 50.9043ZM37.2745 52.3187L37.1457 52.1986L37.2745 52.3187ZM36.5694 51.6686L36.3792 51.4987L36.5694 51.6686ZM27.04 55.7682C27.0196 55.7331 26.9991 55.7038 26.9786 55.6657L24.2518 57.3085L26.9786 55.6628L27.04 55.7682ZM28.7955 58.4564C28.7282 58.3686 28.6609 58.2719 28.5936 58.1812C28.658 58.2837 28.7224 58.3803 28.7809 58.4681L28.7955 58.4564ZM27.9939 57.3349C27.9061 57.2031 27.8183 57.0713 27.7334 56.9337C27.8154 57.0801 27.9032 57.2119 27.988 57.3437L27.9939 57.3349Z" fill="#2196F3"/>
<path fill-rule="evenodd" clip-rule="evenodd" d="M179.245 17.7268L174.069 56.158L153.589 17.7121H144.299L140.742 44.6146C140.742 44.3012 140.771 43.9908 140.771 43.6775C140.881 40.1546 140.266 36.6467 138.963 33.3721C137.661 30.0974 135.699 27.1262 133.199 24.6434C131.081 22.5221 128.599 20.7983 125.873 19.554L126.124 19.6653C128.855 18.9547 131.602 18.2626 134.363 17.5891C138.14 16.6716 141.871 15.8097 145.557 15.0034C138.954 16.2275 132.146 17.6389 125.174 19.2465C125.358 19.3227 125.539 19.4076 125.721 19.4867C122.028 17.8908 118.039 17.0974 114.018 17.1587C109.401 17.029 104.813 17.9121 100.573 19.7458C96.3344 21.5796 92.5476 24.3197 89.479 27.7738C88.8938 28.4093 88.3672 29.0652 87.8493 29.727C87.9722 29.5689 88.0863 29.4107 88.2122 29.2526C86.6907 29.7309 85.181 30.2121 83.683 30.6963C83.7269 30.831 83.762 30.9686 83.8029 31.1062C83.492 30.017 83.0354 28.9749 82.4454 28.0081C81.1873 25.9236 79.2927 24.2995 77.0414 23.3755C73.4381 22.2253 69.6564 21.7382 65.8796 21.9377H56.3416V40.594C52.0036 42.351 47.8596 44.1265 43.9098 45.9206C44.0327 46.0377 44.1352 46.1432 44.22 46.2281C45.0559 47.0652 45.8303 47.9617 46.5372 48.9104C49.621 47.2901 52.8891 45.6746 56.3416 44.0641V69.2681H65.3442V49.2267C68.5205 49.3547 71.7008 49.104 74.8179 48.48C76.7322 47.9535 78.5138 47.0285 80.0462 45.7654C80.4347 41.1756 81.7909 36.7203 84.0254 32.6934C84.7783 32.4201 85.535 32.1477 86.2957 31.8764L86.445 31.6626C82.7146 37.251 80.7753 43.845 80.8859 50.5649C80.7333 54.0299 81.294 57.4894 82.5332 60.7285C83.7723 63.9675 85.6634 66.9171 88.0892 69.394C90.6468 71.8274 93.6713 73.7158 96.9794 74.945C100.288 76.1742 103.811 76.7185 107.335 76.545C113.29 76.6644 119.172 75.2206 124.395 72.3575C129.387 69.5252 133.503 65.3712 136.292 60.3514C137.886 57.5804 139.079 54.5969 139.835 51.4903L136.821 74.2755H146.988L152.176 35.4079L169.616 68.1114C160.301 70.9812 150.549 73.6752 140.508 76.1145C136.737 77.0301 133.012 77.8891 129.331 78.6914C137.754 77.1336 146.511 75.2624 155.502 73.0778C160.49 71.8636 165.4 70.5946 170.234 69.271L172.905 74.2785H181.96L189.567 17.7238L179.245 17.7268ZM65.3559 30.7607H67.8896C69.8447 30.6024 71.8089 30.923 73.6124 31.6948C74.3459 32.1153 74.9315 32.7525 75.2889 33.5192C71.8989 34.6905 68.5879 35.8823 65.3559 37.0946V30.7607ZM72.8986 39.9615C71.3714 40.3579 69.7931 40.5208 68.2173 40.4447H65.3646V40.0523C68.6942 38.631 72.1485 37.2235 75.7277 35.8296C75.7322 36.732 75.4718 37.6159 74.9788 38.3714C74.4725 39.1099 73.7437 39.667 72.8986 39.9615ZM83.8937 31.3757C83.9902 31.7388 84.0809 32.1048 84.1482 32.4826C84.078 32.1048 83.9902 31.7358 83.8907 31.3757H83.8937ZM87.3549 30.3888C87.2028 30.5909 87.0623 30.7988 86.9131 31.0038C87.0594 30.7959 87.2028 30.5909 87.3549 30.3888ZM123.635 60.0937C121.608 62.2106 119.167 63.8853 116.463 65.0126C113.759 66.1399 110.852 66.6955 107.923 66.6443C105.65 66.7884 103.373 66.4279 101.255 65.5886C99.1375 64.7492 97.2312 63.4518 95.6729 61.7892C92.8216 58.5324 91.3016 54.3196 91.4158 49.991C91.4375 45.9892 92.4929 42.0611 94.4792 38.5881C96.3608 35.0913 99.1546 32.1706 102.563 30.137C105.92 28.174 109.747 27.1618 113.634 27.2086C115.834 27.1182 118.029 27.4841 120.081 28.2833C122.132 29.0826 123.997 30.2979 125.557 31.853C127.103 33.5089 128.302 35.4582 129.083 37.5857C129.864 39.7132 130.211 41.9758 130.104 44.2398C130.159 47.1833 129.614 50.1071 128.501 52.8325C127.389 55.558 125.733 58.0277 123.635 60.0907V60.0937Z" fill="#2196F3"/>
</svg>
