
<svg width="33" height="32" viewBox="0 0 33 32" fill="none" xmlns="http://www.w3.org/2000/svg">
<path d="M28.5 19V26C28.5 26.5304 28.2893 27.0391 27.9142 27.4142C27.5391 27.7893 27.0304 28 26.5 28H6.5C5.96957 28 5.46086 27.7893 5.08579 27.4142C4.71071 27.0391 4.5 26.5304 4.5 26V19C4.5 18.7348 4.60536 18.4804 4.79289 18.2929C4.98043 18.1054 5.23478 18 5.5 18C5.76522 18 6.01957 18.1054 6.20711 18.2929C6.39464 18.4804 6.5 18.7348 6.5 19V26H26.5V19C26.5 18.7348 26.6054 18.4804 26.7929 18.2929C26.9804 18.1054 27.2348 18 27.5 18C27.7652 18 28.0196 18.1054 28.2071 18.2929C28.3946 18.4804 28.5 18.7348 28.5 19ZM15.7925 19.7075C15.8854 19.8005 15.9957 19.8742 16.1171 19.9246C16.2385 19.9749 16.3686 20.0008 16.5 20.0008C16.6314 20.0008 16.7615 19.9749 16.8829 19.9246C17.0043 19.8742 17.1146 19.8005 17.2075 19.7075L22.2075 14.7075C22.3004 14.6146 22.3741 14.5043 22.4244 14.3829C22.4747 14.2615 22.5006 14.1314 22.5006 14C22.5006 13.8686 22.4747 13.7385 22.4244 13.6171C22.3741 13.4957 22.3004 13.3854 22.2075 13.2925C22.1146 13.1996 22.0043 13.1259 21.8829 13.0756C21.7615 13.0253 21.6314 12.9994 21.5 12.9994C21.3686 12.9994 21.2385 13.0253 21.1171 13.0756C20.9957 13.1259 20.8854 13.1996 20.7925 13.2925L17.5 16.5863V5C17.5 4.73478 17.3946 4.48043 17.2071 4.29289C17.0196 4.10536 16.7652 4 16.5 4C16.2348 4 15.9804 4.10536 15.7929 4.29289C15.6054 4.48043 15.5 4.73478 15.5 5V16.5863L12.2075 13.2925C12.0199 13.1049 11.7654 12.9994 11.5 12.9994C11.2346 12.9994 10.9801 13.1049 10.7925 13.2925C10.6049 13.4801 10.4994 13.7346 10.4994 14C10.4994 14.2654 10.6049 14.5199 10.7925 14.7075L15.7925 19.7075Z" fill="white"/>
</svg>
