<svg width="51" height="52" viewBox="0 0 51 52" fill="none" xmlns="http://www.w3.org/2000/svg">
<circle cx="25.5" cy="26" r="25.5" fill="#1AC6D9"/>
<path opacity="0.2" d="M40 25.5C40.0004 26.7411 39.6159 27.9518 38.8995 28.9652C38.1831 29.9787 37.1701 30.7451 36 31.1588V32C36 33.3261 35.4732 34.5979 34.5355 35.5355C33.5979 36.4732 32.3261 37 31 37C29.6739 37 28.4021 36.4732 27.4645 35.5355C26.5268 34.5979 26 33.3261 26 32C26 33.3261 25.4732 34.5979 24.5355 35.5355C23.5979 36.4732 22.3261 37 21 37C19.6739 37 18.4021 36.4732 17.4645 35.5355C16.5268 34.5979 16 33.3261 16 32V31.1588C14.8289 30.7459 13.8147 29.98 13.0973 28.9664C12.3799 27.9529 11.9946 26.7417 11.9946 25.5C11.9946 24.2583 12.3799 23.0471 13.0973 22.0336C13.8147 21.02 14.8289 20.2541 16 19.8413V19C16 17.6739 16.5268 16.4021 17.4645 15.4645C18.4021 14.5268 19.6739 14 21 14C22.3261 14 23.5979 14.5268 24.5355 15.4645C25.4732 16.4021 26 17.6739 26 19C26 17.6739 26.5268 16.4021 27.4645 15.4645C28.4021 14.5268 29.6739 14 31 14C32.3261 14 33.5979 14.5268 34.5355 15.4645C35.4732 16.4021 36 17.6739 36 19V19.8413C37.1701 20.2549 38.1831 21.0213 38.8995 22.0348C39.6159 23.0482 40.0004 24.2589 40 25.5Z" fill="#1AC6D9"/>
<path d="M41 25.5C40.9987 24.1754 40.6223 22.8783 39.9144 21.7587C39.2065 20.6391 38.1961 19.7429 37 19.1738V19C36.9988 17.7115 36.5829 16.4576 35.8138 15.4239C35.0447 14.3901 33.9633 13.6314 32.7295 13.26C31.4957 12.8886 30.1751 12.9243 28.9631 13.3617C27.7512 13.7991 26.7122 14.615 26 15.6888C25.2878 14.615 24.2488 13.7991 23.0368 13.3617C21.8249 12.9243 20.5043 12.8886 19.2705 13.26C18.0367 13.6314 16.9553 14.3901 16.1862 15.4239C15.417 16.4576 15.0011 17.7115 15 19V19.1738C13.8029 19.7414 12.7915 20.637 12.0833 21.7567C11.375 22.8763 10.9991 24.1739 10.9991 25.4987C10.9991 26.8236 11.375 28.1212 12.0833 29.2408C12.7915 30.3605 13.8029 31.2561 15 31.8237V32C15.0011 33.2885 15.417 34.5424 16.1862 35.5761C16.9553 36.6099 18.0367 37.3686 19.2705 37.74C20.5043 38.1114 21.8249 38.0757 23.0368 37.6383C24.2488 37.2009 25.2878 36.385 26 35.3113C26.7122 36.385 27.7512 37.2009 28.9631 37.6383C30.1751 38.0757 31.4957 38.1114 32.7295 37.74C33.9633 37.3686 35.0447 36.6099 35.8138 35.5761C36.5829 34.5424 36.9988 33.2885 37 32V31.8237C38.1959 31.255 39.2062 30.3592 39.9141 29.2401C40.622 28.121 40.9985 26.8242 41 25.5ZM21 36C20.0137 35.9999 19.0622 35.6353 18.3283 34.9764C17.5944 34.3175 17.1298 33.4106 17.0237 32.43C17.3471 32.4761 17.6733 32.4995 18 32.5H19C19.2652 32.5 19.5196 32.3946 19.7071 32.2071C19.8946 32.0196 20 31.7652 20 31.5C20 31.2348 19.8946 30.9804 19.7071 30.7929C19.5196 30.6054 19.2652 30.5 19 30.5H18C16.8194 30.5014 15.6765 30.085 14.7735 29.3246C13.8704 28.5641 13.2656 27.5087 13.0661 26.3451C12.8665 25.1816 13.0852 23.9849 13.6832 22.9671C14.2813 21.9492 15.2202 21.1758 16.3337 20.7838C16.5286 20.7148 16.6973 20.5871 16.8166 20.4183C16.9359 20.2495 17 20.0479 17 19.8413V19C17 17.9391 17.4214 16.9217 18.1716 16.1716C18.9217 15.4214 19.9391 15 21 15C22.0609 15 23.0783 15.4214 23.8284 16.1716C24.5786 16.9217 25 17.9391 25 19V27.5325C23.9019 26.5449 22.4769 25.9989 21 26C20.7348 26 20.4804 26.1054 20.2929 26.2929C20.1053 26.4804 20 26.7348 20 27C20 27.2652 20.1053 27.5196 20.2929 27.7071C20.4804 27.8946 20.7348 28 21 28C22.0609 28 23.0783 28.4214 23.8284 29.1716C24.5786 29.9217 25 30.9391 25 32C25 33.0609 24.5786 34.0783 23.8284 34.8284C23.0783 35.5786 22.0609 36 21 36ZM34 30.5H33C32.7348 30.5 32.4804 30.6054 32.2929 30.7929C32.1053 30.9804 32 31.2348 32 31.5C32 31.7652 32.1053 32.0196 32.2929 32.2071C32.4804 32.3946 32.7348 32.5 33 32.5H34C34.3266 32.4995 34.6529 32.4761 34.9762 32.43C34.8932 33.1983 34.5893 33.9262 34.1014 34.5255C33.6134 35.1248 32.9624 35.5699 32.2268 35.807C31.4913 36.0442 30.7028 36.0632 29.9567 35.8617C29.2106 35.6603 28.5389 35.247 28.0227 34.6719C27.5064 34.0967 27.1679 33.3844 27.0479 32.621C26.9279 31.8575 27.0317 31.0757 27.3466 30.3699C27.6616 29.6642 28.1742 29.0648 28.8225 28.6442C29.4709 28.2237 30.2272 27.9999 31 28C31.2652 28 31.5196 27.8946 31.7071 27.7071C31.8946 27.5196 32 27.2652 32 27C32 26.7348 31.8946 26.4804 31.7071 26.2929C31.5196 26.1054 31.2652 26 31 26C29.5231 25.9989 28.0981 26.5449 27 27.5325V19C27 17.9391 27.4214 16.9217 28.1716 16.1716C28.9217 15.4214 29.9391 15 31 15C32.0609 15 33.0783 15.4214 33.8284 16.1716C34.5786 16.9217 35 17.9391 35 19V19.8413C35 20.0479 35.0641 20.2495 35.1834 20.4183C35.3027 20.5871 35.4714 20.7148 35.6662 20.7838C36.7798 21.1758 37.7187 21.9492 38.3168 22.9671C38.9148 23.9849 39.1334 25.1816 38.9339 26.3451C38.7344 27.5087 38.1295 28.5641 37.2265 29.3246C36.3235 30.085 35.1805 30.5014 34 30.5ZM36 24C36 24.2652 35.8946 24.5196 35.7071 24.7071C35.5196 24.8946 35.2652 25 35 25H34.5C33.3065 25 32.1619 24.5259 31.318 23.682C30.4741 22.8381 30 21.6935 30 20.5V20C30 19.7348 30.1053 19.4804 30.2929 19.2929C30.4804 19.1054 30.7348 19 31 19C31.2652 19 31.5196 19.1054 31.7071 19.2929C31.8946 19.4804 32 19.7348 32 20V20.5C32 21.163 32.2634 21.7989 32.7322 22.2678C33.2011 22.7366 33.837 23 34.5 23H35C35.2652 23 35.5196 23.1054 35.7071 23.2929C35.8946 23.4804 36 23.7348 36 24ZM17.5 25H17C16.7348 25 16.4804 24.8946 16.2929 24.7071C16.1053 24.5196 16 24.2652 16 24C16 23.7348 16.1053 23.4804 16.2929 23.2929C16.4804 23.1054 16.7348 23 17 23H17.5C18.163 23 18.7989 22.7366 19.2678 22.2678C19.7366 21.7989 20 21.163 20 20.5V20C20 19.7348 20.1053 19.4804 20.2929 19.2929C20.4804 19.1054 20.7348 19 21 19C21.2652 19 21.5196 19.1054 21.7071 19.2929C21.8946 19.4804 22 19.7348 22 20V20.5C22 21.6935 21.5259 22.8381 20.682 23.682C19.8381 24.5259 18.6935 25 17.5 25Z" fill="white"/>
</svg>
