<svg width="66" height="66" viewBox="0 0 66 66" fill="none" xmlns="http://www.w3.org/2000/svg">
<g filter="url(#filter0_d_5_409)">
<rect x="4" width="58" height="58" rx="29" fill="white"/>
<path d="M25.812 55.2735C21.9063 54.1492 18.1942 52.3408 15.1539 49.6436C12.1136 46.9464 9.71473 43.6036 8.13284 39.8598C6.55095 36.116 5.82607 32.0659 6.01122 28.0058C6.19637 23.9457 7.28688 19.9784 9.20295 16.3941C11.119 12.8098 13.8122 9.69919 17.0854 7.28991C20.3586 4.88061 24.129 3.23358 28.1208 2.46931C32.1126 1.70504 36.2248 1.84286 40.1565 2.8727C44.0881 3.90254 47.7398 5.79834 50.8443 8.42141L49.092 10.4953C46.2966 8.13349 43.0086 6.4265 39.4684 5.49922C35.9283 4.57194 32.2257 4.44784 28.6314 5.136C25.0371 5.82417 21.6422 7.30716 18.6949 9.47656C15.7476 11.6459 13.3227 14.4468 11.5974 17.6741C9.87215 20.9015 8.89024 24.4737 8.72353 28.1295C8.55682 31.7852 9.20951 35.4321 10.6339 38.803C12.0582 42.174 14.2182 45.1839 16.9558 47.6125C19.6934 50.0412 22.8263 51.7573 26.343 52.7696L25.812 55.2735Z" fill="#1AC6D9"/>
<path d="M26.3431 28.0959L26.2643 19.5104H28.7037V30.4937H26.3431V52.7696L25.812 55.2735C27.0513 55.6304 27.6021 55.7088 28.7037 55.8634V30.4937H18.0809V38.9246H15.7203V28.0959H26.3431Z" fill="#1AC6D9"/>
<path d="M52.3456 10.4221C52.3456 10.4221 52.9324 11.0219 53.2596 11.4311C53.5867 11.8403 54.0212 12.5178 54.0212 12.5178L41.7595 38.9854L40.3887 36.1135L52.3456 10.4221Z" fill="#5A6273"/>
<path d="M35.2741 19.5104L40.3887 30.2769L39.051 33.1429L32.5988 19.5104H35.2741Z" fill="#5A6273"/>
<path d="M18.317 19.5104V25.3529H15.7203V19.5104H18.317Z" fill="#5A6273"/>
<path d="M52.9957 11.0624C56.5495 15.0801 58.8467 20.0742 59.5958 25.4131C60.3453 30.752 59.5135 36.1959 57.2059 41.0564C54.8982 45.9169 51.2181 49.9757 46.6311 52.7195C42.0441 55.4634 36.6944 56.3735 31.3743 56.0761L31.5129 53.5385C36.3372 53.8086 41.1941 53.0199 45.3535 50.5318C49.5129 48.0437 52.85 44.3633 54.9426 39.9558C57.0353 35.5483 57.7894 30.6118 57.1097 25.7705C56.4301 20.9293 54.3475 16.4007 51.1248 12.7574L52.9957 11.0624Z" fill="#5A6273"/>
</g>
<defs>
<filter id="filter0_d_5_409" x="0" y="0" width="66" height="66" filterUnits="userSpaceOnUse" color-interpolation-filters="sRGB">
<feFlood flood-opacity="0" result="BackgroundImageFix"/>
<feColorMatrix in="SourceAlpha" type="matrix" values="0 0 0 0 0 0 0 0 0 0 0 0 0 0 0 0 0 0 127 0" result="hardAlpha"/>
<feOffset dy="4"/>
<feGaussianBlur stdDeviation="2"/>
<feComposite in2="hardAlpha" operator="out"/>
<feColorMatrix type="matrix" values="0 0 0 0 0 0 0 0 0 0 0 0 0 0 0 0 0 0 0.25 0"/>
<feBlend mode="normal" in2="BackgroundImageFix" result="effect1_dropShadow_5_409"/>
<feBlend mode="normal" in="SourceGraphic" in2="effect1_dropShadow_5_409" result="shape"/>
</filter>
</defs>
</svg>
