<svg width="495" height="297" viewBox="0 0 495 297" fill="none" xmlns="http://www.w3.org/2000/svg">
<path d="M0 97C0 77.67 15.67 62 35 62H460C479.33 62 495 77.67 495 97V262C495 281.33 479.33 297 460 297H35C15.67 297 0 281.33 0 262V97Z" fill="#B2DAE7"/>
<rect x="7" y="68" width="194" height="222" rx="30" fill="#ECFBFF"/>
<path d="M42.4697 100.53C42.7626 100.823 43.2374 100.823 43.5303 100.53L48.3033 95.7574C48.5962 95.4645 48.5962 94.9896 48.3033 94.6967C48.0104 94.4038 47.5355 94.4038 47.2426 94.6967L43 98.9393L38.7574 94.6967C38.4645 94.4038 37.9896 94.4038 37.6967 94.6967C37.4038 94.9896 37.4038 95.4645 37.6967 95.7574L42.4697 100.53ZM42.25 43L42.25 100L43.75 100L43.75 43L42.25 43Z" fill="#5A6273"/>
<path d="M301.53 100.53C301.823 100.237 301.823 99.7626 301.53 99.4697L296.757 94.6967C296.464 94.4038 295.99 94.4038 295.697 94.6967C295.404 94.9896 295.404 95.4645 295.697 95.7574L299.939 100L295.697 104.243C295.404 104.536 295.404 105.01 295.697 105.303C295.99 105.596 296.464 105.596 296.757 105.303L301.53 100.53ZM168 100.75L301 100.75L301 99.25L168 99.25V100.75Z" fill="#5A6273"/>
<rect x="43" y="212" width="129.043" height="37.5652" rx="13.913" fill="white"/>
<path d="M72.7391 219.913C70.7944 219.913 68.9873 220.404 67.3179 221.385C65.7002 222.331 64.418 223.613 63.4715 225.231C62.4905 226.901 62 228.708 62 230.652C62 232.597 62.4905 234.404 63.4715 236.074C64.418 237.691 65.7002 238.973 67.3179 239.92C68.9873 240.901 70.7944 241.392 72.7391 241.392C74.6839 241.392 76.4909 240.901 78.1603 239.92C79.7781 238.973 81.0602 237.691 82.0068 236.074C82.9878 234.404 83.4783 232.597 83.4783 230.652C83.4783 229.379 83.289 228.252 82.9103 227.271L81.5679 228.587C81.74 229.276 81.8261 229.964 81.8261 230.652C81.8261 232.305 81.413 233.836 80.587 235.247C79.7953 236.624 78.7111 237.709 77.3342 238.5C75.923 239.326 74.3913 239.739 72.7391 239.739C71.087 239.739 69.5553 239.326 68.144 238.5C66.7672 237.709 65.683 236.624 64.8913 235.247C64.0652 233.836 63.6522 232.305 63.6522 230.652C63.6522 229 64.0652 227.469 64.8913 226.057C65.683 224.68 66.7672 223.596 68.144 222.805C69.5553 221.978 71.087 221.565 72.7391 221.565C73.9611 221.565 75.1227 221.798 76.2242 222.262C77.274 222.693 78.2034 223.312 79.0122 224.121L80.1739 222.959C79.2102 221.996 78.0829 221.247 76.7921 220.714C75.5186 220.18 74.1676 219.913 72.7391 219.913ZM82.0584 223.45L72.7391 232.769L69.2025 229.233L68.015 230.42L72.1454 234.55L72.7391 235.118L73.3329 234.55L83.2459 224.637L82.0584 223.45Z" fill="#5A6273"/>
<path d="M92.1617 236.739L88.8087 226.722H90.0957L93.0104 235.424L95.953 226.722H97.24L93.887 236.739H92.1617ZM99.7971 236.948C99.2359 236.948 98.7652 236.846 98.3849 236.642C98.0092 236.433 97.724 236.16 97.5292 235.821C97.3391 235.482 97.244 235.111 97.244 234.708C97.244 234.314 97.3182 233.973 97.4666 233.685C97.6197 233.393 97.833 233.152 98.1066 232.962C98.3803 232.767 98.7072 232.614 99.0875 232.503C99.4446 232.405 99.8434 232.322 100.284 232.252C100.729 232.178 101.179 232.111 101.634 232.051C102.088 231.99 102.512 231.932 102.907 231.877L102.461 232.134C102.475 231.466 102.341 230.972 102.058 230.652C101.78 230.332 101.297 230.172 100.611 230.172C100.156 230.172 99.7577 230.277 99.4145 230.485C99.0759 230.689 98.8371 231.023 98.6979 231.487L97.5223 231.132C97.7032 230.474 98.0533 229.957 98.5727 229.581C99.0921 229.205 99.7762 229.018 100.625 229.018C101.307 229.018 101.891 229.14 102.378 229.386C102.87 229.627 103.222 229.994 103.435 230.485C103.542 230.717 103.609 230.97 103.637 231.244C103.665 231.513 103.679 231.795 103.679 232.092V236.739H102.58V234.938L102.837 235.104C102.554 235.712 102.158 236.171 101.648 236.482C101.142 236.793 100.525 236.948 99.7971 236.948ZM99.9849 235.911C100.43 235.911 100.815 235.833 101.14 235.675C101.469 235.513 101.733 235.302 101.933 235.042C102.132 234.778 102.262 234.49 102.322 234.179C102.392 233.947 102.429 233.69 102.434 233.407C102.443 233.12 102.448 232.899 102.448 232.746L102.879 232.934C102.475 232.99 102.079 233.043 101.689 233.094C101.3 233.145 100.931 233.201 100.583 233.261C100.235 233.317 99.9223 233.384 99.644 233.463C99.44 233.528 99.2475 233.611 99.0666 233.713C98.8904 233.815 98.7466 233.947 98.6353 234.11C98.5287 234.267 98.4753 234.464 98.4753 234.701C98.4753 234.905 98.5263 235.1 98.6284 235.285C98.735 235.471 98.8974 235.622 99.1153 235.738C99.3379 235.853 99.6278 235.911 99.9849 235.911ZM105.627 236.739V226.513H106.865V236.739H105.627ZM109.091 227.898V226.618H110.33V227.898H109.091ZM109.091 236.739V229.226H110.33V236.739H109.091ZM115.366 236.948C114.666 236.948 114.066 236.774 113.565 236.426C113.064 236.074 112.677 235.598 112.403 235C112.134 234.402 111.999 233.727 111.999 232.976C111.999 232.224 112.134 231.55 112.403 230.951C112.677 230.353 113.064 229.882 113.565 229.539C114.066 229.191 114.664 229.018 115.359 229.018C116.069 229.018 116.665 229.189 117.147 229.532C117.63 229.875 117.994 230.346 118.239 230.944C118.49 231.543 118.615 232.22 118.615 232.976C118.615 233.722 118.49 234.397 118.239 235C117.994 235.598 117.63 236.074 117.147 236.426C116.665 236.774 116.071 236.948 115.366 236.948ZM115.519 235.814C116.025 235.814 116.44 235.693 116.765 235.452C117.089 235.207 117.328 234.87 117.481 234.444C117.639 234.012 117.718 233.523 117.718 232.976C117.718 232.419 117.639 231.93 117.481 231.508C117.328 231.081 117.092 230.75 116.772 230.513C116.452 230.272 116.046 230.151 115.554 230.151C115.044 230.151 114.622 230.277 114.288 230.527C113.959 230.778 113.713 231.116 113.551 231.543C113.393 231.969 113.314 232.447 113.314 232.976C113.314 233.509 113.395 233.991 113.558 234.423C113.72 234.849 113.964 235.188 114.288 235.438C114.617 235.689 115.028 235.814 115.519 235.814ZM117.718 236.739V231.209H117.579V226.722H118.824V236.739H117.718ZM122.908 236.948C122.347 236.948 121.877 236.846 121.496 236.642C121.121 236.433 120.835 236.16 120.641 235.821C120.451 235.482 120.355 235.111 120.355 234.708C120.355 234.314 120.43 233.973 120.578 233.685C120.731 233.393 120.944 233.152 121.218 232.962C121.492 232.767 121.819 232.614 122.199 232.503C122.556 232.405 122.955 232.322 123.395 232.252C123.841 232.178 124.291 232.111 124.745 232.051C125.199 231.99 125.624 231.932 126.018 231.877L125.573 232.134C125.587 231.466 125.452 230.972 125.169 230.652C124.891 230.332 124.409 230.172 123.722 230.172C123.268 230.172 122.869 230.277 122.526 230.485C122.187 230.689 121.948 231.023 121.809 231.487L120.634 231.132C120.815 230.474 121.165 229.957 121.684 229.581C122.204 229.205 122.888 229.018 123.736 229.018C124.418 229.018 125.002 229.14 125.489 229.386C125.981 229.627 126.333 229.994 126.547 230.485C126.653 230.717 126.721 230.97 126.748 231.244C126.776 231.513 126.79 231.795 126.79 232.092V236.739H125.691V234.938L125.948 235.104C125.666 235.712 125.269 236.171 124.759 236.482C124.253 236.793 123.637 236.948 122.908 236.948ZM123.096 235.911C123.542 235.911 123.926 235.833 124.251 235.675C124.58 235.513 124.845 235.302 125.044 235.042C125.244 234.778 125.373 234.49 125.434 234.179C125.503 233.947 125.54 233.69 125.545 233.407C125.554 233.12 125.559 232.899 125.559 232.746L125.99 232.934C125.587 232.99 125.19 233.043 124.801 233.094C124.411 233.145 124.042 233.201 123.695 233.261C123.347 233.317 123.034 233.384 122.755 233.463C122.551 233.528 122.359 233.611 122.178 233.713C122.002 233.815 121.858 233.947 121.747 234.11C121.64 234.267 121.587 234.464 121.587 234.701C121.587 234.905 121.638 235.1 121.74 235.285C121.846 235.471 122.009 235.622 122.227 235.738C122.449 235.853 122.739 235.911 123.096 235.911ZM131.458 240.085C131.286 240.085 131.124 240.062 130.971 240.016C130.823 239.974 130.681 239.921 130.547 239.856L130.846 239.056C131.055 239.13 131.224 239.167 131.354 239.167C131.521 239.167 131.648 239.116 131.736 239.014C131.829 238.912 131.875 238.801 131.875 238.68C131.875 238.476 131.783 238.328 131.597 238.235C131.412 238.147 131.198 238.068 130.957 237.998L131.465 236.572L132.307 236.565L131.98 237.484C132.235 237.6 132.439 237.757 132.592 237.957C132.745 238.161 132.822 238.413 132.822 238.715C132.822 239.109 132.687 239.436 132.418 239.696C132.149 239.955 131.829 240.085 131.458 240.085ZM131.764 236.948C131.004 236.948 130.357 236.779 129.823 236.44C129.295 236.097 128.891 235.626 128.613 235.028C128.335 234.43 128.191 233.748 128.182 232.983C128.191 232.199 128.337 231.51 128.62 230.917C128.907 230.318 129.318 229.852 129.851 229.518C130.384 229.184 131.027 229.018 131.778 229.018C132.571 229.018 133.253 229.212 133.823 229.602C134.398 229.991 134.783 230.525 134.978 231.202L133.754 231.571C133.596 231.135 133.339 230.796 132.982 230.555C132.629 230.314 132.223 230.193 131.764 230.193C131.249 230.193 130.825 230.314 130.491 230.555C130.157 230.791 129.909 231.121 129.747 231.543C129.584 231.96 129.501 232.44 129.496 232.983C129.506 233.818 129.698 234.492 130.074 235.007C130.454 235.517 131.017 235.772 131.764 235.772C132.256 235.772 132.664 235.661 132.988 235.438C133.313 235.211 133.559 234.884 133.726 234.458L134.978 234.784C134.718 235.485 134.313 236.02 133.761 236.391C133.209 236.762 132.543 236.948 131.764 236.948ZM140.546 228.058C140.341 228.058 140.144 228.016 139.954 227.932C139.764 227.844 139.581 227.744 139.405 227.633C139.228 227.522 139.061 227.424 138.904 227.341C138.746 227.253 138.598 227.209 138.459 227.209C138.292 227.209 138.183 227.283 138.132 227.431C138.081 227.575 138.081 227.738 138.132 227.918H137.297C137.186 227.455 137.225 227.063 137.415 226.743C137.605 226.418 137.925 226.256 138.375 226.256C138.584 226.256 138.783 226.3 138.973 226.388C139.164 226.471 139.347 226.569 139.523 226.68C139.704 226.791 139.873 226.891 140.031 226.979C140.188 227.063 140.335 227.104 140.469 227.104C140.627 227.104 140.736 227.033 140.796 226.889C140.856 226.745 140.856 226.576 140.796 226.381H141.631C141.747 226.835 141.71 227.23 141.519 227.564C141.329 227.893 141.005 228.058 140.546 228.058ZM138.466 236.948C137.904 236.948 137.434 236.846 137.053 236.642C136.678 236.433 136.393 236.16 136.198 235.821C136.008 235.482 135.913 235.111 135.913 234.708C135.913 234.314 135.987 233.973 136.135 233.685C136.288 233.393 136.501 233.152 136.775 232.962C137.049 232.767 137.376 232.614 137.756 232.503C138.113 232.405 138.512 232.322 138.953 232.252C139.398 232.178 139.848 232.111 140.302 232.051C140.757 231.99 141.181 231.932 141.575 231.877L141.13 232.134C141.144 231.466 141.009 230.972 140.726 230.652C140.448 230.332 139.966 230.172 139.279 230.172C138.825 230.172 138.426 230.277 138.083 230.485C137.744 230.689 137.506 231.023 137.366 231.487L136.191 231.132C136.372 230.474 136.722 229.957 137.241 229.581C137.761 229.205 138.445 229.018 139.293 229.018C139.975 229.018 140.559 229.14 141.046 229.386C141.538 229.627 141.89 229.994 142.104 230.485C142.21 230.717 142.278 230.97 142.306 231.244C142.333 231.513 142.347 231.795 142.347 232.092V236.739H141.248V234.938L141.506 235.104C141.223 235.712 140.826 236.171 140.316 236.482C139.81 236.793 139.194 236.948 138.466 236.948ZM138.653 235.911C139.099 235.911 139.484 235.833 139.808 235.675C140.137 235.513 140.402 235.302 140.601 235.042C140.801 234.778 140.93 234.49 140.991 234.179C141.06 233.947 141.097 233.69 141.102 233.407C141.111 233.12 141.116 232.899 141.116 232.746L141.547 232.934C141.144 232.99 140.747 233.043 140.358 233.094C139.968 233.145 139.599 233.201 139.252 233.261C138.904 233.317 138.591 233.384 138.313 233.463C138.108 233.528 137.916 233.611 137.735 233.713C137.559 233.815 137.415 233.947 137.304 234.11C137.197 234.267 137.144 234.464 137.144 234.701C137.144 234.905 137.195 235.1 137.297 235.285C137.404 235.471 137.566 235.622 137.784 235.738C138.006 235.853 138.296 235.911 138.653 235.911ZM147.356 236.948C146.609 236.948 145.965 236.779 145.422 236.44C144.884 236.102 144.469 235.633 144.177 235.035C143.885 234.437 143.739 233.75 143.739 232.976C143.739 232.187 143.887 231.496 144.184 230.903C144.481 230.309 144.9 229.848 145.443 229.518C145.986 229.184 146.623 229.018 147.356 229.018C148.107 229.018 148.754 229.187 149.297 229.525C149.839 229.859 150.255 230.325 150.542 230.924C150.834 231.517 150.98 232.201 150.98 232.976C150.98 233.76 150.834 234.451 150.542 235.049C150.25 235.642 149.833 236.109 149.29 236.447C148.747 236.781 148.103 236.948 147.356 236.948ZM147.356 235.772C148.135 235.772 148.715 235.513 149.095 234.993C149.475 234.474 149.666 233.801 149.666 232.976C149.666 232.127 149.473 231.452 149.088 230.951C148.703 230.446 148.126 230.193 147.356 230.193C146.832 230.193 146.401 230.311 146.062 230.548C145.724 230.784 145.471 231.111 145.304 231.529C145.137 231.946 145.053 232.429 145.053 232.976C145.053 233.82 145.248 234.497 145.638 235.007C146.027 235.517 146.6 235.772 147.356 235.772Z" fill="#5A6273"/>
<rect x="293" y="211.565" width="127.261" height="37.5652" rx="13.913" fill="white"/>
<path d="M308.826 221.131V226.087H313.783V221.131H308.826ZM310.478 222.783H312.13V224.435H310.478V222.783ZM315.435 222.783V224.435H327.826V222.783H315.435ZM308.826 227.74V232.696H313.783V227.74H308.826ZM310.478 229.392H312.13V231.044H310.478V229.392ZM315.435 229.392V231.044H327.826V229.392H315.435ZM308.826 234.348V239.305H313.783V234.348H308.826ZM310.478 236H312.13V237.653H310.478V236ZM315.435 236V237.653H327.826V236H315.435Z" fill="#5A6273"/>
<path d="M335.713 235.848V225.831H339.671C339.769 225.831 339.885 225.835 340.019 225.845C340.154 225.849 340.283 225.863 340.409 225.886C340.951 225.97 341.406 226.155 341.772 226.443C342.143 226.73 342.421 227.095 342.607 227.535C342.792 227.971 342.885 228.456 342.885 228.989C342.885 229.518 342.79 230.002 342.6 230.443C342.414 230.879 342.136 231.243 341.765 231.535C341.399 231.823 340.947 232.008 340.409 232.092C340.283 232.11 340.154 232.124 340.019 232.133C339.885 232.143 339.769 232.147 339.671 232.147H336.951V235.848H335.713ZM336.951 230.972H339.63C339.718 230.972 339.817 230.967 339.929 230.958C340.045 230.948 340.154 230.932 340.256 230.909C340.576 230.835 340.835 230.7 341.035 230.506C341.239 230.306 341.387 230.074 341.48 229.81C341.573 229.541 341.619 229.267 341.619 228.989C341.619 228.711 341.573 228.439 341.48 228.175C341.387 227.906 341.239 227.672 341.035 227.472C340.835 227.273 340.576 227.139 340.256 227.069C340.154 227.041 340.045 227.025 339.929 227.02C339.817 227.011 339.718 227.006 339.63 227.006H336.951V230.972ZM344.273 235.848V228.335H345.379V230.151L345.198 229.914C345.286 229.682 345.4 229.469 345.539 229.274C345.683 229.079 345.843 228.919 346.019 228.794C346.214 228.637 346.434 228.516 346.68 228.432C346.926 228.349 347.176 228.3 347.431 228.286C347.686 228.268 347.925 228.284 348.148 228.335V229.497C347.888 229.427 347.603 229.409 347.292 229.441C346.981 229.474 346.694 229.587 346.429 229.782C346.188 229.954 346 230.162 345.866 230.408C345.736 230.654 345.646 230.921 345.595 231.208C345.544 231.491 345.518 231.781 345.518 232.078V235.848H344.273ZM349.602 227.006V225.726H350.84V227.006H349.602ZM349.602 235.848V228.335H350.84V235.848H349.602ZM356.128 236.057C355.381 236.057 354.736 235.888 354.194 235.549C353.656 235.21 353.241 234.742 352.949 234.144C352.656 233.546 352.51 232.859 352.51 232.085C352.51 231.296 352.659 230.605 352.956 230.012C353.252 229.418 353.672 228.957 354.215 228.627C354.757 228.293 355.395 228.126 356.128 228.126C356.879 228.126 357.526 228.296 358.069 228.634C358.611 228.968 359.026 229.434 359.314 230.032C359.606 230.626 359.752 231.31 359.752 232.085C359.752 232.868 359.606 233.559 359.314 234.158C359.022 234.751 358.604 235.217 358.062 235.556C357.519 235.89 356.874 236.057 356.128 236.057ZM356.128 234.881C356.907 234.881 357.487 234.621 357.867 234.102C358.247 233.583 358.437 232.91 358.437 232.085C358.437 231.236 358.245 230.561 357.86 230.06C357.475 229.555 356.898 229.302 356.128 229.302C355.604 229.302 355.172 229.42 354.834 229.657C354.495 229.893 354.243 230.22 354.076 230.638C353.909 231.055 353.825 231.537 353.825 232.085C353.825 232.929 354.02 233.606 354.409 234.116C354.799 234.626 355.372 234.881 356.128 234.881ZM361.284 235.848V228.335H362.39V230.151L362.209 229.914C362.297 229.682 362.411 229.469 362.55 229.274C362.694 229.079 362.854 228.919 363.03 228.794C363.225 228.637 363.445 228.516 363.691 228.432C363.936 228.349 364.187 228.3 364.442 228.286C364.697 228.268 364.936 228.284 365.158 228.335V229.497C364.899 229.427 364.614 229.409 364.303 229.441C363.992 229.474 363.705 229.587 363.44 229.782C363.199 229.954 363.011 230.162 362.877 230.408C362.747 230.654 362.656 230.921 362.605 231.208C362.554 231.491 362.529 231.781 362.529 232.078V235.848H361.284ZM366.613 227.006V225.726H367.851V227.006H366.613ZM366.613 235.848V228.335H367.851V235.848H366.613ZM369.243 235.848V235.626L373.799 229.462H369.619V228.335H375.796V228.572L371.246 234.721H375.559V235.848H369.243ZM379.044 236.057C378.483 236.057 378.012 235.955 377.632 235.751C377.257 235.542 376.971 235.268 376.777 234.93C376.586 234.591 376.491 234.22 376.491 233.817C376.491 233.423 376.566 233.082 376.714 232.794C376.867 232.502 377.08 232.261 377.354 232.071C377.628 231.876 377.955 231.723 378.335 231.612C378.692 231.514 379.091 231.431 379.531 231.361C379.977 231.287 380.426 231.22 380.881 231.159C381.335 231.099 381.76 231.041 382.154 230.986L381.709 231.243C381.723 230.575 381.588 230.081 381.305 229.761C381.027 229.441 380.545 229.281 379.858 229.281C379.404 229.281 379.005 229.386 378.662 229.594C378.323 229.798 378.084 230.132 377.945 230.596L376.77 230.241C376.95 229.583 377.301 229.066 377.82 228.69C378.339 228.314 379.023 228.126 379.872 228.126C380.554 228.126 381.138 228.249 381.625 228.495C382.117 228.736 382.469 229.103 382.683 229.594C382.789 229.826 382.857 230.079 382.884 230.352C382.912 230.621 382.926 230.904 382.926 231.201V235.848H381.827V234.046L382.084 234.213C381.801 234.821 381.405 235.28 380.895 235.591C380.389 235.901 379.772 236.057 379.044 236.057ZM379.232 235.02C379.677 235.02 380.062 234.941 380.387 234.784C380.716 234.621 380.981 234.41 381.18 234.151C381.379 233.886 381.509 233.599 381.57 233.288C381.639 233.056 381.676 232.799 381.681 232.516C381.69 232.228 381.695 232.008 381.695 231.855L382.126 232.043C381.723 232.099 381.326 232.152 380.937 232.203C380.547 232.254 380.178 232.31 379.83 232.37C379.483 232.426 379.17 232.493 378.891 232.572C378.687 232.637 378.495 232.72 378.314 232.822C378.138 232.924 377.994 233.056 377.883 233.219C377.776 233.376 377.723 233.573 377.723 233.81C377.723 234.014 377.774 234.209 377.876 234.394C377.982 234.58 378.145 234.73 378.363 234.846C378.585 234.962 378.875 235.02 379.232 235.02ZM387.594 239.194C387.422 239.194 387.26 239.171 387.107 239.125C386.959 239.083 386.817 239.03 386.683 238.965L386.982 238.165C387.19 238.239 387.36 238.276 387.49 238.276C387.657 238.276 387.784 238.225 387.872 238.123C387.965 238.021 388.011 237.91 388.011 237.789C388.011 237.585 387.919 237.437 387.733 237.344C387.548 237.256 387.334 237.177 387.093 237.107L387.601 235.681L388.443 235.674L388.116 236.592C388.371 236.708 388.575 236.866 388.728 237.066C388.881 237.27 388.957 237.522 388.957 237.824C388.957 238.218 388.823 238.545 388.554 238.805C388.285 239.064 387.965 239.194 387.594 239.194ZM387.9 236.057C387.139 236.057 386.492 235.888 385.959 235.549C385.43 235.206 385.027 234.735 384.749 234.137C384.47 233.539 384.327 232.857 384.317 232.092C384.327 231.308 384.473 230.619 384.756 230.026C385.043 229.427 385.454 228.961 385.987 228.627C386.52 228.293 387.163 228.126 387.914 228.126C388.707 228.126 389.389 228.321 389.959 228.711C390.534 229.1 390.919 229.634 391.114 230.311L389.89 230.679C389.732 230.244 389.474 229.905 389.117 229.664C388.765 229.423 388.359 229.302 387.9 229.302C387.385 229.302 386.961 229.423 386.627 229.664C386.293 229.9 386.045 230.23 385.883 230.652C385.72 231.069 385.637 231.549 385.632 232.092C385.641 232.926 385.834 233.601 386.21 234.116C386.59 234.626 387.153 234.881 387.9 234.881C388.392 234.881 388.8 234.77 389.124 234.547C389.449 234.32 389.695 233.993 389.862 233.566L391.114 233.893C390.854 234.594 390.448 235.129 389.897 235.5C389.345 235.871 388.679 236.057 387.9 236.057ZM396.681 227.166C396.477 227.166 396.28 227.125 396.09 227.041C395.9 226.953 395.717 226.853 395.541 226.742C395.364 226.631 395.197 226.533 395.04 226.45C394.882 226.362 394.734 226.318 394.594 226.318C394.428 226.318 394.319 226.392 394.268 226.54C394.216 226.684 394.216 226.846 394.268 227.027H393.433C393.321 226.564 393.361 226.172 393.551 225.852C393.741 225.527 394.061 225.365 394.511 225.365C394.72 225.365 394.919 225.409 395.109 225.497C395.299 225.58 395.483 225.678 395.659 225.789C395.84 225.9 396.009 226 396.167 226.088C396.324 226.172 396.47 226.213 396.605 226.213C396.763 226.213 396.872 226.141 396.932 225.998C396.992 225.854 396.992 225.685 396.932 225.49H397.767C397.883 225.944 397.845 226.339 397.655 226.672C397.465 227.002 397.141 227.166 396.681 227.166ZM394.601 236.057C394.04 236.057 393.57 235.955 393.189 235.751C392.814 235.542 392.528 235.268 392.334 234.93C392.143 234.591 392.048 234.22 392.048 233.817C392.048 233.423 392.123 233.082 392.271 232.794C392.424 232.502 392.637 232.261 392.911 232.071C393.185 231.876 393.512 231.723 393.892 231.612C394.249 231.514 394.648 231.431 395.088 231.361C395.534 231.287 395.983 231.22 396.438 231.159C396.892 231.099 397.317 231.041 397.711 230.986L397.266 231.243C397.28 230.575 397.145 230.081 396.862 229.761C396.584 229.441 396.102 229.281 395.415 229.281C394.961 229.281 394.562 229.386 394.219 229.594C393.88 229.798 393.641 230.132 393.502 230.596L392.327 230.241C392.508 229.583 392.858 229.066 393.377 228.69C393.896 228.314 394.581 228.126 395.429 228.126C396.111 228.126 396.695 228.249 397.182 228.495C397.674 228.736 398.026 229.103 398.24 229.594C398.346 229.826 398.414 230.079 398.441 230.352C398.469 230.621 398.483 230.904 398.483 231.201V235.848H397.384V234.046L397.641 234.213C397.359 234.821 396.962 235.28 396.452 235.591C395.946 235.901 395.33 236.057 394.601 236.057ZM394.789 235.02C395.234 235.02 395.619 234.941 395.944 234.784C396.273 234.621 396.538 234.41 396.737 234.151C396.936 233.886 397.066 233.599 397.127 233.288C397.196 233.056 397.233 232.799 397.238 232.516C397.247 232.228 397.252 232.008 397.252 231.855L397.683 232.043C397.28 232.099 396.883 232.152 396.494 232.203C396.104 232.254 395.735 232.31 395.388 232.37C395.04 232.426 394.727 232.493 394.448 232.572C394.244 232.637 394.052 232.72 393.871 232.822C393.695 232.924 393.551 233.056 393.44 233.219C393.333 233.376 393.28 233.573 393.28 233.81C393.28 234.014 393.331 234.209 393.433 234.394C393.539 234.58 393.702 234.73 393.92 234.846C394.142 234.962 394.432 235.02 394.789 235.02ZM403.492 236.057C402.745 236.057 402.101 235.888 401.558 235.549C401.02 235.21 400.605 234.742 400.313 234.144C400.021 233.546 399.874 232.859 399.874 232.085C399.874 231.296 400.023 230.605 400.32 230.012C400.616 229.418 401.036 228.957 401.579 228.627C402.121 228.293 402.759 228.126 403.492 228.126C404.243 228.126 404.89 228.296 405.433 228.634C405.975 228.968 406.39 229.434 406.678 230.032C406.97 230.626 407.116 231.31 407.116 232.085C407.116 232.868 406.97 233.559 406.678 234.158C406.386 234.751 405.968 235.217 405.426 235.556C404.883 235.89 404.239 236.057 403.492 236.057ZM403.492 234.881C404.271 234.881 404.851 234.621 405.231 234.102C405.611 233.583 405.801 232.91 405.801 232.085C405.801 231.236 405.609 230.561 405.224 230.06C404.839 229.555 404.262 229.302 403.492 229.302C402.968 229.302 402.536 229.42 402.198 229.657C401.859 229.893 401.607 230.22 401.44 230.638C401.273 231.055 401.189 231.537 401.189 232.085C401.189 232.929 401.384 233.606 401.774 234.116C402.163 234.626 402.736 234.881 403.492 234.881Z" fill="#5A6273"/>
<rect x="243" y="133" width="226.261" height="37.5652" rx="13.913" fill="white"/>
<path d="M259.652 142.565V145.87H260.478V157.435H259.652V160.739H262.957V159.913H274.522V160.739H277.826V157.435H277V145.87H277.826V142.565H274.522V143.392H262.957V142.565H259.652ZM262.957 145.044H274.522V145.87H275.348V157.435H274.522V158.261H262.957V157.435H262.13V145.87H262.957V145.044ZM263.783 146.696V153.305H267.087V156.609H273.696V150H270.391V146.696H263.783ZM265.435 148.348H268.739V151.652H265.435V148.348ZM270.391 151.652H272.043V154.957H268.739V153.305H270.391V151.652Z" fill="#5A6273"/>
<path d="M285.017 157.283L288.37 147.265H290.096L293.449 157.283H292.162L289.024 147.989H289.414L286.304 157.283H285.017ZM286.631 154.938V153.777H291.835V154.938H286.631ZM294.694 157.283V149.77H295.8V151.585L295.619 151.349C295.707 151.117 295.821 150.904 295.96 150.709C296.104 150.514 296.264 150.354 296.44 150.229C296.635 150.071 296.855 149.951 297.101 149.867C297.347 149.784 297.597 149.735 297.852 149.721C298.107 149.702 298.346 149.719 298.569 149.77V150.931C298.309 150.862 298.024 150.843 297.713 150.876C297.402 150.908 297.115 151.022 296.851 151.217C296.609 151.388 296.422 151.597 296.287 151.843C296.157 152.089 296.067 152.355 296.016 152.643C295.965 152.926 295.939 153.215 295.939 153.512V157.283H294.694ZM302.834 157.491C302.133 157.491 301.533 157.317 301.032 156.97C300.531 156.617 300.144 156.142 299.87 155.544C299.601 154.945 299.467 154.271 299.467 153.519C299.467 152.768 299.601 152.093 299.87 151.495C300.144 150.897 300.531 150.426 301.032 150.083C301.533 149.735 302.131 149.561 302.827 149.561C303.536 149.561 304.132 149.733 304.615 150.076C305.097 150.419 305.461 150.89 305.707 151.488C305.957 152.086 306.082 152.763 306.082 153.519C306.082 154.266 305.957 154.941 305.707 155.544C305.461 156.142 305.097 156.617 304.615 156.97C304.132 157.317 303.539 157.491 302.834 157.491ZM302.987 156.357C303.492 156.357 303.907 156.237 304.232 155.996C304.557 155.75 304.796 155.414 304.949 154.987C305.106 154.556 305.185 154.066 305.185 153.519C305.185 152.963 305.106 152.473 304.949 152.051C304.796 151.625 304.559 151.293 304.239 151.057C303.919 150.815 303.513 150.695 303.022 150.695C302.511 150.695 302.089 150.82 301.756 151.071C301.426 151.321 301.18 151.66 301.018 152.086C300.86 152.513 300.782 152.991 300.782 153.519C300.782 154.053 300.863 154.535 301.025 154.966C301.187 155.393 301.431 155.731 301.756 155.982C302.085 156.232 302.495 156.357 302.987 156.357ZM305.046 160.622V155.3H305.185V149.77H306.291V160.622H305.046ZM311.092 157.477C310.61 157.477 310.195 157.401 309.847 157.248C309.504 157.095 309.219 156.891 308.991 156.636C308.764 156.381 308.586 156.098 308.456 155.787C308.326 155.476 308.233 155.159 308.178 154.834C308.127 154.509 308.101 154.206 308.101 153.923V149.77H309.353V153.533C309.353 153.886 309.386 154.226 309.451 154.556C309.516 154.885 309.625 155.182 309.778 155.446C309.935 155.711 310.144 155.919 310.404 156.072C310.668 156.225 310.997 156.302 311.391 156.302C311.702 156.302 311.985 156.249 312.24 156.142C312.495 156.035 312.713 155.877 312.894 155.669C313.075 155.455 313.214 155.186 313.311 154.862C313.409 154.537 313.458 154.159 313.458 153.728L314.271 153.978C314.271 154.702 314.139 155.326 313.875 155.85C313.615 156.374 313.247 156.777 312.769 157.06C312.296 157.338 311.737 157.477 311.092 157.477ZM313.597 157.283V155.272H313.458V149.77H314.703V157.283H313.597ZM316.79 148.441V147.161H318.028V148.441H316.79ZM316.79 157.283V149.77H318.028V157.283H316.79ZM324.31 157.283C323.865 157.371 323.424 157.406 322.988 157.387C322.557 157.373 322.172 157.287 321.833 157.13C321.495 156.967 321.238 156.717 321.061 156.378C320.913 156.082 320.832 155.782 320.818 155.481C320.809 155.175 320.804 154.829 320.804 154.444V147.683H322.042V154.389C322.042 154.695 322.044 154.957 322.049 155.175C322.058 155.393 322.107 155.581 322.195 155.738C322.362 156.035 322.626 156.209 322.988 156.26C323.355 156.311 323.795 156.297 324.31 156.218V157.283ZM319.28 150.792V149.77H324.31V150.792H319.28ZM328.778 157.491C328.041 157.491 327.396 157.329 326.845 157.004C326.297 156.675 325.871 156.218 325.565 155.634C325.258 155.045 325.105 154.359 325.105 153.575C325.105 152.754 325.256 152.044 325.558 151.446C325.859 150.843 326.279 150.38 326.817 150.055C327.359 149.726 327.995 149.561 328.723 149.561C329.479 149.561 330.121 149.735 330.65 150.083C331.183 150.431 331.582 150.927 331.846 151.571C332.115 152.216 332.231 152.984 332.194 153.874H330.942V153.429C330.928 152.506 330.74 151.817 330.378 151.363C330.017 150.904 329.479 150.674 328.765 150.674C327.999 150.674 327.417 150.92 327.018 151.411C326.62 151.903 326.42 152.608 326.42 153.526C326.42 154.412 326.62 155.098 327.018 155.585C327.417 156.072 327.985 156.316 328.723 156.316C329.219 156.316 329.65 156.202 330.017 155.975C330.383 155.748 330.671 155.421 330.879 154.994L332.069 155.404C331.777 156.068 331.336 156.582 330.747 156.949C330.163 157.311 329.507 157.491 328.778 157.491ZM326.003 153.874V152.879H331.554V153.874H326.003ZM337.938 157.283C337.492 157.371 337.052 157.406 336.616 157.387C336.185 157.373 335.8 157.287 335.461 157.13C335.123 156.967 334.865 156.717 334.689 156.378C334.541 156.082 334.459 155.782 334.446 155.481C334.436 155.175 334.432 154.829 334.432 154.444V147.683H335.67V154.389C335.67 154.695 335.672 154.957 335.677 155.175C335.686 155.393 335.735 155.581 335.823 155.738C335.99 156.035 336.254 156.209 336.616 156.26C336.982 156.311 337.423 156.297 337.938 156.218V157.283ZM332.908 150.792V149.77H337.938V150.792H332.908ZM342.315 157.477C341.833 157.477 341.418 157.401 341.07 157.248C340.727 157.095 340.442 156.891 340.214 156.636C339.987 156.381 339.809 156.098 339.679 155.787C339.549 155.476 339.456 155.159 339.4 154.834C339.349 154.509 339.324 154.206 339.324 153.923V149.77H340.576V153.533C340.576 153.886 340.609 154.226 340.673 154.556C340.738 154.885 340.847 155.182 341 155.446C341.158 155.711 341.367 155.919 341.627 156.072C341.891 156.225 342.22 156.302 342.614 156.302C342.925 156.302 343.208 156.249 343.463 156.142C343.718 156.035 343.936 155.877 344.117 155.669C344.298 155.455 344.437 155.186 344.534 154.862C344.632 154.537 344.68 154.159 344.68 153.728L345.494 153.978C345.494 154.702 345.362 155.326 345.098 155.85C344.838 156.374 344.469 156.777 343.992 157.06C343.519 157.338 342.96 157.477 342.315 157.477ZM344.82 157.283V155.272H344.68V149.77H345.926V157.283H344.82ZM347.873 157.283V149.77H348.979V151.585L348.799 151.349C348.887 151.117 349 150.904 349.139 150.709C349.283 150.514 349.443 150.354 349.619 150.229C349.814 150.071 350.035 149.951 350.28 149.867C350.526 149.784 350.777 149.735 351.032 149.721C351.287 149.702 351.526 149.719 351.748 149.77V150.931C351.488 150.862 351.203 150.843 350.892 150.876C350.582 150.908 350.294 151.022 350.03 151.217C349.789 151.388 349.601 151.597 349.466 151.843C349.337 152.089 349.246 152.355 349.195 152.643C349.144 152.926 349.119 153.215 349.119 153.512V157.283H347.873ZM354.955 157.491C354.393 157.491 353.923 157.389 353.542 157.185C353.167 156.977 352.882 156.703 352.687 156.364C352.497 156.026 352.402 155.655 352.402 155.251C352.402 154.857 352.476 154.516 352.624 154.229C352.777 153.937 352.991 153.695 353.264 153.505C353.538 153.311 353.865 153.157 354.245 153.046C354.602 152.949 355.001 152.865 355.442 152.796C355.887 152.722 356.337 152.654 356.791 152.594C357.246 152.534 357.67 152.476 358.064 152.42L357.619 152.677C357.633 152.01 357.498 151.516 357.216 151.196C356.937 150.876 356.455 150.716 355.769 150.716C355.314 150.716 354.915 150.82 354.572 151.029C354.233 151.233 353.995 151.567 353.856 152.031L352.68 151.676C352.861 151.017 353.211 150.5 353.73 150.124C354.25 149.749 354.934 149.561 355.782 149.561C356.464 149.561 357.049 149.684 357.536 149.93C358.027 150.171 358.38 150.537 358.593 151.029C358.7 151.261 358.767 151.513 358.795 151.787C358.822 152.056 358.836 152.339 358.836 152.636V157.283H357.737V155.481L357.995 155.648C357.712 156.255 357.315 156.715 356.805 157.025C356.3 157.336 355.683 157.491 354.955 157.491ZM355.142 156.455C355.588 156.455 355.973 156.376 356.297 156.218C356.627 156.056 356.891 155.845 357.09 155.585C357.29 155.321 357.42 155.033 357.48 154.723C357.549 154.491 357.587 154.233 357.591 153.951C357.6 153.663 357.605 153.443 357.605 153.29L358.036 153.477C357.633 153.533 357.236 153.586 356.847 153.637C356.457 153.689 356.089 153.744 355.741 153.804C355.393 153.86 355.08 153.927 354.802 154.006C354.598 154.071 354.405 154.155 354.224 154.257C354.048 154.359 353.904 154.491 353.793 154.653C353.686 154.811 353.633 155.008 353.633 155.244C353.633 155.449 353.684 155.643 353.786 155.829C353.893 156.014 354.055 156.165 354.273 156.281C354.496 156.397 354.785 156.455 355.142 156.455ZM366.38 157.491C365.68 157.491 365.079 157.317 364.578 156.97C364.077 156.617 363.69 156.142 363.416 155.544C363.148 154.945 363.013 154.271 363.013 153.519C363.013 152.768 363.148 152.093 363.416 151.495C363.69 150.897 364.077 150.426 364.578 150.083C365.079 149.735 365.677 149.561 366.373 149.561C367.083 149.561 367.679 149.733 368.161 150.076C368.643 150.419 369.007 150.89 369.253 151.488C369.503 152.086 369.629 152.763 369.629 153.519C369.629 154.266 369.503 154.941 369.253 155.544C369.007 156.142 368.643 156.617 368.161 156.97C367.679 157.317 367.085 157.491 366.38 157.491ZM366.533 156.357C367.039 156.357 367.454 156.237 367.778 155.996C368.103 155.75 368.342 155.414 368.495 154.987C368.652 154.556 368.731 154.066 368.731 153.519C368.731 152.963 368.652 152.473 368.495 152.051C368.342 151.625 368.105 151.293 367.785 151.057C367.465 150.815 367.059 150.695 366.568 150.695C366.058 150.695 365.636 150.82 365.302 151.071C364.972 151.321 364.727 151.66 364.564 152.086C364.407 152.513 364.328 152.991 364.328 153.519C364.328 154.053 364.409 154.535 364.571 154.966C364.734 155.393 364.977 155.731 365.302 155.982C365.631 156.232 366.041 156.357 366.533 156.357ZM368.731 157.283V151.752H368.592V147.265H369.837V157.283H368.731ZM375.042 157.491C374.305 157.491 373.66 157.329 373.108 157.004C372.561 156.675 372.134 156.218 371.828 155.634C371.522 155.045 371.369 154.359 371.369 153.575C371.369 152.754 371.52 152.044 371.821 151.446C372.123 150.843 372.542 150.38 373.08 150.055C373.623 149.726 374.258 149.561 374.986 149.561C375.742 149.561 376.385 149.735 376.913 150.083C377.447 150.431 377.846 150.927 378.11 151.571C378.379 152.216 378.495 152.984 378.458 153.874H377.206V153.429C377.192 152.506 377.004 151.817 376.642 151.363C376.28 150.904 375.742 150.674 375.028 150.674C374.263 150.674 373.681 150.92 373.282 151.411C372.883 151.903 372.684 152.608 372.684 153.526C372.684 154.412 372.883 155.098 373.282 155.585C373.681 156.072 374.249 156.316 374.986 156.316C375.483 156.316 375.914 156.202 376.28 155.975C376.647 155.748 376.934 155.421 377.143 154.994L378.332 155.404C378.04 156.068 377.6 156.582 377.011 156.949C376.426 157.311 375.77 157.491 375.042 157.491ZM372.266 153.874V152.879H377.818V153.874H372.266ZM382.931 148.441V147.161H384.169V148.441H382.931ZM382.931 157.283V149.77H384.169V157.283H382.931ZM391.606 157.283V153.519C391.606 153.162 391.574 152.819 391.509 152.49C391.448 152.16 391.339 151.866 391.182 151.606C391.029 151.342 390.82 151.133 390.556 150.98C390.296 150.827 389.967 150.751 389.568 150.751C389.257 150.751 388.974 150.804 388.719 150.911C388.469 151.013 388.253 151.17 388.072 151.384C387.891 151.597 387.75 151.866 387.648 152.191C387.55 152.511 387.502 152.889 387.502 153.324L386.688 153.074C386.688 152.346 386.818 151.722 387.077 151.203C387.342 150.679 387.71 150.277 388.183 149.999C388.661 149.716 389.222 149.575 389.867 149.575C390.354 149.575 390.769 149.651 391.112 149.804C391.455 149.957 391.741 150.162 391.968 150.417C392.195 150.667 392.374 150.95 392.503 151.265C392.633 151.576 392.724 151.894 392.775 152.218C392.83 152.538 392.858 152.842 392.858 153.13V157.283H391.606ZM386.25 157.283V149.77H387.363V151.78H387.502V157.283H386.25ZM395.383 157.283V149.359C395.383 149.164 395.393 148.967 395.411 148.768C395.43 148.564 395.471 148.367 395.536 148.177C395.601 147.982 395.708 147.803 395.856 147.641C396.028 147.451 396.216 147.316 396.42 147.237C396.624 147.154 396.83 147.103 397.039 147.084C397.252 147.066 397.454 147.057 397.644 147.057H398.597V148.086H397.714C397.347 148.086 397.074 148.177 396.893 148.357C396.712 148.534 396.622 148.803 396.622 149.164V157.283H395.383ZM394.11 150.792V149.77H398.597V150.792H394.11ZM402.636 157.491C401.889 157.491 401.245 157.322 400.702 156.984C400.164 156.645 399.749 156.177 399.457 155.578C399.165 154.98 399.018 154.294 399.018 153.519C399.018 152.731 399.167 152.04 399.464 151.446C399.76 150.853 400.18 150.391 400.723 150.062C401.265 149.728 401.903 149.561 402.636 149.561C403.387 149.561 404.034 149.73 404.577 150.069C405.119 150.403 405.534 150.869 405.822 151.467C406.114 152.061 406.26 152.745 406.26 153.519C406.26 154.303 406.114 154.994 405.822 155.592C405.53 156.186 405.112 156.652 404.57 156.991C404.027 157.324 403.383 157.491 402.636 157.491ZM402.636 156.316C403.415 156.316 403.995 156.056 404.375 155.537C404.755 155.017 404.945 154.345 404.945 153.519C404.945 152.671 404.753 151.996 404.368 151.495C403.983 150.989 403.406 150.737 402.636 150.737C402.112 150.737 401.68 150.855 401.342 151.091C401.003 151.328 400.751 151.655 400.584 152.072C400.417 152.49 400.333 152.972 400.333 153.519C400.333 154.363 400.528 155.04 400.918 155.551C401.307 156.061 401.88 156.316 402.636 156.316ZM407.792 157.283V149.77H408.898V151.585L408.717 151.349C408.805 151.117 408.919 150.904 409.058 150.709C409.202 150.514 409.362 150.354 409.538 150.229C409.733 150.071 409.953 149.951 410.199 149.867C410.445 149.784 410.695 149.735 410.95 149.721C411.205 149.702 411.444 149.719 411.667 149.77V150.931C411.407 150.862 411.122 150.843 410.811 150.876C410.5 150.908 410.213 151.022 409.948 151.217C409.707 151.388 409.519 151.597 409.385 151.843C409.255 152.089 409.165 152.355 409.114 152.643C409.063 152.926 409.037 153.215 409.037 153.512V157.283H407.792ZM421.963 157.283L421.97 152.476C421.97 151.915 421.819 151.476 421.518 151.161C421.221 150.841 420.834 150.681 420.356 150.681C420.078 150.681 419.813 150.746 419.563 150.876C419.312 151.001 419.108 151.2 418.951 151.474C418.793 151.743 418.714 152.089 418.714 152.511L418.06 152.246C418.051 151.713 418.16 151.247 418.387 150.848C418.619 150.444 418.935 150.131 419.333 149.909C419.732 149.686 420.182 149.575 420.683 149.575C421.467 149.575 422.083 149.814 422.533 150.291C422.983 150.764 423.208 151.402 423.208 152.204L423.201 157.283H421.963ZM412.975 157.283V149.77H414.081V151.78H414.22V157.283H412.975ZM417.476 157.283L417.483 152.524C417.483 151.949 417.335 151.5 417.038 151.175C416.741 150.846 416.347 150.681 415.855 150.681C415.368 150.681 414.974 150.848 414.672 151.182C414.371 151.516 414.22 151.959 414.22 152.511L413.566 152.121C413.566 151.634 413.682 151.198 413.914 150.813C414.146 150.428 414.461 150.127 414.86 149.909C415.259 149.686 415.711 149.575 416.217 149.575C416.722 149.575 417.163 149.682 417.539 149.895C417.914 150.108 418.204 150.414 418.408 150.813C418.612 151.207 418.714 151.678 418.714 152.225L418.707 157.283H417.476ZM427.156 157.491C426.595 157.491 426.124 157.389 425.744 157.185C425.368 156.977 425.083 156.703 424.888 156.364C424.698 156.026 424.603 155.655 424.603 155.251C424.603 154.857 424.677 154.516 424.825 154.229C424.978 153.937 425.192 153.695 425.465 153.505C425.739 153.311 426.066 153.157 426.446 153.046C426.803 152.949 427.202 152.865 427.643 152.796C428.088 152.722 428.538 152.654 428.992 152.594C429.447 152.534 429.871 152.476 430.265 152.42L429.82 152.677C429.834 152.01 429.7 151.516 429.417 151.196C429.138 150.876 428.656 150.716 427.97 150.716C427.515 150.716 427.116 150.82 426.773 151.029C426.435 151.233 426.196 151.567 426.057 152.031L424.881 151.676C425.062 151.017 425.412 150.5 425.931 150.124C426.451 149.749 427.135 149.561 427.984 149.561C428.665 149.561 429.25 149.684 429.737 149.93C430.228 150.171 430.581 150.537 430.794 151.029C430.901 151.261 430.968 151.513 430.996 151.787C431.024 152.056 431.037 152.339 431.037 152.636V157.283H429.938V155.481L430.196 155.648C429.913 156.255 429.516 156.715 429.006 157.025C428.501 157.336 427.884 157.491 427.156 157.491ZM427.344 156.455C427.789 156.455 428.174 156.376 428.498 156.218C428.828 156.056 429.092 155.845 429.291 155.585C429.491 155.321 429.621 155.033 429.681 154.723C429.751 154.491 429.788 154.233 429.792 153.951C429.802 153.663 429.806 153.443 429.806 153.29L430.237 153.477C429.834 153.533 429.437 153.586 429.048 153.637C428.658 153.689 428.29 153.744 427.942 153.804C427.594 153.86 427.281 153.927 427.003 154.006C426.799 154.071 426.606 154.155 426.425 154.257C426.249 154.359 426.105 154.491 425.994 154.653C425.887 154.811 425.834 155.008 425.834 155.244C425.834 155.449 425.885 155.643 425.987 155.829C426.094 156.014 426.256 156.165 426.474 156.281C426.697 156.397 426.986 156.455 427.344 156.455ZM435.705 160.629C435.534 160.629 435.371 160.606 435.218 160.559C435.07 160.517 434.929 160.464 434.794 160.399L435.093 159.599C435.302 159.673 435.471 159.711 435.601 159.711C435.768 159.711 435.895 159.66 435.984 159.557C436.076 159.455 436.123 159.344 436.123 159.224C436.123 159.02 436.03 158.871 435.844 158.778C435.659 158.69 435.446 158.611 435.204 158.542L435.712 157.116L436.554 157.109L436.227 158.027C436.482 158.143 436.686 158.301 436.839 158.5C436.992 158.704 437.069 158.957 437.069 159.258C437.069 159.653 436.934 159.98 436.665 160.239C436.396 160.499 436.076 160.629 435.705 160.629ZM436.011 157.491C435.251 157.491 434.604 157.322 434.071 156.984C433.542 156.64 433.138 156.17 432.86 155.571C432.582 154.973 432.438 154.291 432.429 153.526C432.438 152.742 432.584 152.054 432.867 151.46C433.155 150.862 433.565 150.396 434.098 150.062C434.632 149.728 435.274 149.561 436.025 149.561C436.818 149.561 437.5 149.756 438.071 150.145C438.646 150.535 439.031 151.068 439.225 151.745L438.001 152.114C437.843 151.678 437.586 151.34 437.229 151.098C436.876 150.857 436.471 150.737 436.011 150.737C435.497 150.737 435.072 150.857 434.738 151.098C434.404 151.335 434.156 151.664 433.994 152.086C433.832 152.504 433.748 152.984 433.744 153.526C433.753 154.361 433.945 155.036 434.321 155.551C434.701 156.061 435.265 156.316 436.011 156.316C436.503 156.316 436.911 156.204 437.236 155.982C437.56 155.755 437.806 155.428 437.973 155.001L439.225 155.328C438.966 156.028 438.56 156.564 438.008 156.935C437.456 157.306 436.791 157.491 436.011 157.491ZM444.793 148.601C444.589 148.601 444.392 148.559 444.202 148.476C444.011 148.388 443.828 148.288 443.652 148.177C443.476 148.065 443.309 147.968 443.151 147.884C442.993 147.796 442.845 147.752 442.706 147.752C442.539 147.752 442.43 147.826 442.379 147.975C442.328 148.119 442.328 148.281 442.379 148.462H441.544C441.433 147.998 441.472 147.606 441.662 147.286C441.853 146.962 442.173 146.799 442.622 146.799C442.831 146.799 443.03 146.843 443.221 146.931C443.411 147.015 443.594 147.112 443.77 147.224C443.951 147.335 444.12 147.435 444.278 147.523C444.436 147.606 444.582 147.648 444.716 147.648C444.874 147.648 444.983 147.576 445.043 147.432C445.104 147.289 445.104 147.119 445.043 146.924H445.878C445.994 147.379 445.957 147.773 445.767 148.107C445.577 148.436 445.252 148.601 444.793 148.601ZM442.713 157.491C442.152 157.491 441.681 157.389 441.301 157.185C440.925 156.977 440.64 156.703 440.445 156.364C440.255 156.026 440.16 155.655 440.16 155.251C440.16 154.857 440.234 154.516 440.382 154.229C440.535 153.937 440.749 153.695 441.022 153.505C441.296 153.311 441.623 153.157 442.003 153.046C442.36 152.949 442.759 152.865 443.2 152.796C443.645 152.722 444.095 152.654 444.549 152.594C445.004 152.534 445.428 152.476 445.822 152.42L445.377 152.677C445.391 152.01 445.257 151.516 444.974 151.196C444.695 150.876 444.213 150.716 443.527 150.716C443.072 150.716 442.673 150.82 442.33 151.029C441.992 151.233 441.753 151.567 441.614 152.031L440.438 151.676C440.619 151.017 440.969 150.5 441.488 150.124C442.008 149.749 442.692 149.561 443.541 149.561C444.222 149.561 444.807 149.684 445.294 149.93C445.785 150.171 446.138 150.537 446.351 151.029C446.458 151.261 446.525 151.513 446.553 151.787C446.581 152.056 446.595 152.339 446.595 152.636V157.283H445.495V155.481L445.753 155.648C445.47 156.255 445.073 156.715 444.563 157.025C444.058 157.336 443.441 157.491 442.713 157.491ZM442.901 156.455C443.346 156.455 443.731 156.376 444.055 156.218C444.385 156.056 444.649 155.845 444.848 155.585C445.048 155.321 445.178 155.033 445.238 154.723C445.308 154.491 445.345 154.233 445.349 153.951C445.359 153.663 445.363 153.443 445.363 153.29L445.795 153.477C445.391 153.533 444.995 153.586 444.605 153.637C444.215 153.689 443.847 153.744 443.499 153.804C443.151 153.86 442.838 153.927 442.56 154.006C442.356 154.071 442.163 154.155 441.982 154.257C441.806 154.359 441.662 154.491 441.551 154.653C441.444 154.811 441.391 155.008 441.391 155.244C441.391 155.449 441.442 155.643 441.544 155.829C441.651 156.014 441.813 156.165 442.031 156.281C442.254 156.397 442.544 156.455 442.901 156.455ZM451.603 157.491C450.857 157.491 450.212 157.322 449.669 156.984C449.131 156.645 448.716 156.177 448.424 155.578C448.132 154.98 447.986 154.294 447.986 153.519C447.986 152.731 448.134 152.04 448.431 151.446C448.728 150.853 449.148 150.391 449.69 150.062C450.233 149.728 450.87 149.561 451.603 149.561C452.355 149.561 453.001 149.73 453.544 150.069C454.087 150.403 454.502 150.869 454.789 151.467C455.081 152.061 455.228 152.745 455.228 153.519C455.228 154.303 455.081 154.994 454.789 155.592C454.497 156.186 454.08 156.652 453.537 156.991C452.995 157.324 452.35 157.491 451.603 157.491ZM451.603 156.316C452.382 156.316 452.962 156.056 453.342 155.537C453.723 155.017 453.913 154.345 453.913 153.519C453.913 152.671 453.72 151.996 453.335 151.495C452.95 150.989 452.373 150.737 451.603 150.737C451.079 150.737 450.648 150.855 450.309 151.091C449.971 151.328 449.718 151.655 449.551 152.072C449.384 152.49 449.301 152.972 449.301 153.519C449.301 154.363 449.495 155.04 449.885 155.551C450.275 156.061 450.847 156.316 451.603 156.316Z" fill="#5A6273"/>
<rect x="40" y="133" width="134.261" height="37.5652" rx="13.913" fill="white"/>
<path d="M68.2174 140.913C66.7201 140.913 65.3347 141.292 64.0611 142.049C62.8048 142.772 61.8152 143.762 61.0924 145.018C60.3351 146.291 59.9565 147.677 59.9565 149.174C59.9565 150.155 60.12 151.093 60.447 151.988C60.774 152.866 61.2301 153.666 61.8152 154.389L55.2323 160.972L56.4198 162.159L63.0027 155.576C63.7255 156.161 64.5258 156.618 65.4035 156.945C66.2985 157.271 67.2364 157.435 68.2174 157.435C69.7147 157.435 71.1001 157.056 72.3736 156.299C73.63 155.576 74.6196 154.587 75.3424 153.33C76.0996 152.057 76.4783 150.671 76.4783 149.174C76.4783 147.677 76.0996 146.291 75.3424 145.018C74.6196 143.762 73.63 142.772 72.3736 142.049C71.1001 141.292 69.7147 140.913 68.2174 140.913ZM68.2174 142.565C69.4221 142.565 70.5236 142.867 71.5217 143.469C72.5371 144.054 73.3374 144.854 73.9226 145.87C74.5249 146.868 74.8261 147.969 74.8261 149.174C74.8261 150.379 74.5249 151.489 73.9226 152.504C73.3374 153.502 72.5371 154.303 71.5217 154.905C70.5236 155.49 69.4221 155.783 68.2174 155.783C67.0127 155.783 65.9026 155.49 64.8872 154.905C63.889 154.303 63.0888 153.502 62.4864 152.504C61.9013 151.489 61.6087 150.379 61.6087 149.174C61.6087 147.969 61.9013 146.868 62.4864 145.87C63.0888 144.854 63.889 144.054 64.8872 143.469C65.9026 142.867 67.0127 142.565 68.2174 142.565Z" fill="#5A6273"/>
<path d="M82.713 157.783V147.765H85.8017C85.9038 147.765 86.0823 147.768 86.3374 147.772C86.5925 147.777 86.8359 147.795 87.0678 147.828C87.8423 147.93 88.4893 148.213 89.0087 148.677C89.5328 149.136 89.927 149.72 90.1913 150.43C90.4557 151.139 90.5878 151.921 90.5878 152.774C90.5878 153.627 90.4557 154.409 90.1913 155.118C89.927 155.828 89.5328 156.415 89.0087 156.878C88.4893 157.337 87.8423 157.618 87.0678 157.72C86.8359 157.748 86.5902 157.766 86.3304 157.776C86.0754 157.78 85.8991 157.783 85.8017 157.783H82.713ZM83.9861 156.6H85.8017C85.978 156.6 86.1751 156.595 86.393 156.586C86.611 156.572 86.8012 156.551 86.9635 156.524C87.5107 156.422 87.9536 156.192 88.2922 155.835C88.6307 155.478 88.8788 155.033 89.0365 154.499C89.1942 153.966 89.273 153.391 89.273 152.774C89.273 152.143 89.1919 151.561 89.0296 151.028C88.8719 150.495 88.6238 150.052 88.2852 149.699C87.9467 149.347 87.5061 149.122 86.9635 149.024C86.8012 148.992 86.6087 148.971 86.3861 148.962C86.1635 148.953 85.9687 148.948 85.8017 148.948H83.9861V156.6ZM95.4388 157.991C94.7014 157.991 94.0568 157.829 93.5049 157.504C92.9577 157.175 92.531 156.718 92.2249 156.134C91.9188 155.545 91.7658 154.859 91.7658 154.075C91.7658 153.254 91.9165 152.544 92.2179 151.946C92.5194 151.343 92.9391 150.88 93.4771 150.555C94.0197 150.226 94.655 150.061 95.3832 150.061C96.1391 150.061 96.7814 150.235 97.3101 150.583C97.8434 150.931 98.2423 151.427 98.5066 152.071C98.7756 152.716 98.8916 153.484 98.8545 154.374H97.6023V153.929C97.5884 153.006 97.4005 152.317 97.0388 151.863C96.6771 151.404 96.1391 151.174 95.4249 151.174C94.6597 151.174 94.0777 151.42 93.6788 151.911C93.28 152.403 93.0805 153.108 93.0805 154.026C93.0805 154.912 93.28 155.598 93.6788 156.085C94.0777 156.572 94.6458 156.816 95.3832 156.816C95.8794 156.816 96.3107 156.702 96.6771 156.475C97.0434 156.248 97.331 155.921 97.5397 155.494L98.7292 155.904C98.4371 156.568 97.9965 157.082 97.4075 157.449C96.8232 157.811 96.1669 157.991 95.4388 157.991ZM92.6632 154.374V153.379H98.2145V154.374H92.6632ZM103.242 157.984C102.346 157.984 101.611 157.79 101.036 157.4C100.466 157.006 100.116 156.456 99.9859 155.751L101.252 155.55C101.354 155.958 101.588 156.282 101.955 156.524C102.321 156.76 102.775 156.878 103.318 156.878C103.833 156.878 104.236 156.772 104.528 156.558C104.821 156.345 104.967 156.055 104.967 155.689C104.967 155.475 104.918 155.304 104.821 155.174C104.723 155.04 104.522 154.914 104.215 154.798C103.914 154.682 103.457 154.543 102.845 154.381C102.182 154.205 101.66 154.022 101.28 153.831C100.899 153.641 100.628 153.421 100.466 153.171C100.304 152.92 100.222 152.616 100.222 152.259C100.222 151.819 100.343 151.434 100.584 151.104C100.825 150.771 101.162 150.513 101.593 150.332C102.029 150.151 102.534 150.061 103.109 150.061C103.68 150.061 104.19 150.151 104.64 150.332C105.09 150.513 105.451 150.771 105.725 151.104C106.003 151.434 106.168 151.819 106.219 152.259L104.953 152.489C104.893 152.085 104.698 151.768 104.368 151.536C104.044 151.304 103.624 151.181 103.109 151.167C102.622 151.149 102.226 151.234 101.92 151.424C101.618 151.615 101.468 151.872 101.468 152.197C101.468 152.377 101.523 152.533 101.635 152.663C101.751 152.793 101.962 152.915 102.268 153.031C102.578 153.147 103.028 153.28 103.617 153.428C104.28 153.595 104.802 153.778 105.182 153.977C105.567 154.172 105.841 154.404 106.003 154.673C106.166 154.937 106.247 155.264 106.247 155.654C106.247 156.377 105.98 156.948 105.447 157.365C104.913 157.778 104.178 157.984 103.242 157.984ZM110.946 157.991C110.186 157.991 109.539 157.822 109.005 157.484C108.477 157.14 108.073 156.67 107.795 156.071C107.517 155.473 107.373 154.791 107.364 154.026C107.373 153.242 107.519 152.554 107.802 151.96C108.089 151.362 108.5 150.896 109.033 150.562C109.566 150.228 110.209 150.061 110.96 150.061C111.753 150.061 112.435 150.256 113.005 150.645C113.58 151.035 113.965 151.568 114.16 152.245L112.936 152.614C112.778 152.178 112.521 151.84 112.164 151.598C111.811 151.357 111.405 151.237 110.946 151.237C110.431 151.237 110.007 151.357 109.673 151.598C109.339 151.835 109.091 152.164 108.929 152.586C108.766 153.004 108.683 153.484 108.678 154.026C108.688 154.861 108.88 155.536 109.256 156.051C109.636 156.561 110.2 156.816 110.946 156.816C111.438 156.816 111.846 156.704 112.171 156.482C112.495 156.255 112.741 155.928 112.908 155.501L114.16 155.828C113.9 156.528 113.495 157.064 112.943 157.435C112.391 157.806 111.725 157.991 110.946 157.991ZM118.576 157.991C117.829 157.991 117.185 157.822 116.642 157.484C116.104 157.145 115.689 156.677 115.397 156.078C115.105 155.48 114.959 154.794 114.959 154.019C114.959 153.231 115.107 152.54 115.404 151.946C115.701 151.353 116.12 150.891 116.663 150.562C117.206 150.228 117.843 150.061 118.576 150.061C119.327 150.061 119.974 150.23 120.517 150.569C121.06 150.903 121.475 151.369 121.762 151.967C122.054 152.561 122.2 153.245 122.2 154.019C122.2 154.803 122.054 155.494 121.762 156.092C121.47 156.686 121.053 157.152 120.51 157.491C119.967 157.824 119.323 157.991 118.576 157.991ZM118.576 156.816C119.355 156.816 119.935 156.556 120.315 156.037C120.696 155.517 120.886 154.845 120.886 154.019C120.886 153.171 120.693 152.496 120.308 151.995C119.923 151.489 119.346 151.237 118.576 151.237C118.052 151.237 117.621 151.355 117.282 151.591C116.944 151.828 116.691 152.155 116.524 152.572C116.357 152.99 116.273 153.472 116.273 154.019C116.273 154.863 116.468 155.54 116.858 156.051C117.247 156.561 117.82 156.816 118.576 156.816ZM127.183 157.991C126.478 157.991 125.884 157.817 125.402 157.47C124.919 157.117 124.553 156.642 124.303 156.044C124.057 155.441 123.934 154.766 123.934 154.019C123.934 153.263 124.057 152.586 124.303 151.988C124.553 151.39 124.919 150.919 125.402 150.576C125.889 150.233 126.485 150.061 127.189 150.061C127.885 150.061 128.483 150.235 128.984 150.583C129.49 150.926 129.877 151.397 130.146 151.995C130.415 152.593 130.549 153.268 130.549 154.019C130.549 154.771 130.415 155.445 130.146 156.044C129.877 156.642 129.49 157.117 128.984 157.47C128.483 157.817 127.883 157.991 127.183 157.991ZM123.725 157.783V147.765H124.97V152.252H124.831V157.783H123.725ZM127.029 156.857C127.526 156.857 127.936 156.732 128.261 156.482C128.585 156.231 128.829 155.893 128.991 155.466C129.154 155.035 129.235 154.553 129.235 154.019C129.235 153.491 129.154 153.013 128.991 152.586C128.834 152.16 128.588 151.821 128.254 151.571C127.925 151.32 127.505 151.195 126.995 151.195C126.508 151.195 126.104 151.315 125.784 151.557C125.464 151.793 125.225 152.125 125.068 152.551C124.91 152.973 124.831 153.463 124.831 154.019C124.831 154.566 124.908 155.056 125.061 155.487C125.218 155.914 125.46 156.25 125.784 156.496C126.109 156.737 126.524 156.857 127.029 156.857ZM135.33 157.991C134.593 157.991 133.948 157.829 133.396 157.504C132.849 157.175 132.422 156.718 132.116 156.134C131.81 155.545 131.657 154.859 131.657 154.075C131.657 153.254 131.808 152.544 132.109 151.946C132.411 151.343 132.83 150.88 133.368 150.555C133.911 150.226 134.546 150.061 135.274 150.061C136.03 150.061 136.673 150.235 137.201 150.583C137.735 150.931 138.134 151.427 138.398 152.071C138.667 152.716 138.783 153.484 138.746 154.374H137.494V153.929C137.48 153.006 137.292 152.317 136.93 151.863C136.568 151.404 136.03 151.174 135.316 151.174C134.551 151.174 133.969 151.42 133.57 151.911C133.171 152.403 132.972 153.108 132.972 154.026C132.972 154.912 133.171 155.598 133.57 156.085C133.969 156.572 134.537 156.816 135.274 156.816C135.771 156.816 136.202 156.702 136.568 156.475C136.935 156.248 137.222 155.921 137.431 155.494L138.621 155.904C138.328 156.568 137.888 157.082 137.299 157.449C136.714 157.811 136.058 157.991 135.33 157.991ZM132.554 154.374V153.379H138.106V154.374H132.554ZM140.295 157.783V150.27H141.401V152.085L141.22 151.849C141.308 151.617 141.422 151.404 141.561 151.209C141.704 151.014 141.864 150.854 142.041 150.729C142.235 150.571 142.456 150.451 142.702 150.367C142.947 150.284 143.198 150.235 143.453 150.221C143.708 150.202 143.947 150.219 144.169 150.27V151.431C143.91 151.362 143.624 151.343 143.314 151.376C143.003 151.408 142.715 151.522 142.451 151.717C142.21 151.888 142.022 152.097 141.888 152.343C141.758 152.589 141.667 152.855 141.616 153.143C141.565 153.426 141.54 153.715 141.54 154.012V157.783H140.295ZM149.68 157.783C149.234 157.871 148.794 157.906 148.358 157.887C147.927 157.873 147.542 157.787 147.203 157.63C146.865 157.467 146.607 157.217 146.431 156.878C146.282 156.582 146.201 156.282 146.187 155.981C146.178 155.675 146.173 155.329 146.173 154.944V148.183H147.412V154.889C147.412 155.195 147.414 155.457 147.419 155.675C147.428 155.893 147.477 156.081 147.565 156.238C147.732 156.535 147.996 156.709 148.358 156.76C148.724 156.811 149.165 156.797 149.68 156.718V157.783ZM144.65 151.292V150.27H149.68V151.292H144.65ZM153.341 157.991C152.779 157.991 152.309 157.889 151.928 157.685C151.553 157.477 151.268 157.203 151.073 156.864C150.883 156.526 150.788 156.155 150.788 155.751C150.788 155.357 150.862 155.016 151.01 154.729C151.163 154.437 151.376 154.195 151.65 154.005C151.924 153.811 152.251 153.657 152.631 153.546C152.988 153.449 153.387 153.365 153.828 153.296C154.273 153.222 154.723 153.154 155.177 153.094C155.632 153.034 156.056 152.976 156.45 152.92L156.005 153.177C156.019 152.51 155.884 152.016 155.601 151.696C155.323 151.376 154.841 151.216 154.154 151.216C153.7 151.216 153.301 151.32 152.958 151.529C152.619 151.733 152.381 152.067 152.241 152.531L151.066 152.176C151.247 151.517 151.597 151 152.116 150.624C152.636 150.249 153.32 150.061 154.168 150.061C154.85 150.061 155.434 150.184 155.921 150.43C156.413 150.671 156.765 151.037 156.979 151.529C157.085 151.761 157.153 152.013 157.181 152.287C157.208 152.556 157.222 152.839 157.222 153.136V157.783H156.123V155.981L156.381 156.148C156.098 156.755 155.701 157.215 155.191 157.525C154.685 157.836 154.069 157.991 153.341 157.991ZM153.528 156.955C153.974 156.955 154.359 156.876 154.683 156.718C155.012 156.556 155.277 156.345 155.476 156.085C155.676 155.821 155.805 155.533 155.866 155.223C155.935 154.991 155.972 154.733 155.977 154.451C155.986 154.163 155.991 153.943 155.991 153.79L156.422 153.977C156.019 154.033 155.622 154.086 155.233 154.137C154.843 154.189 154.474 154.244 154.127 154.304C153.779 154.36 153.466 154.427 153.188 154.506C152.983 154.571 152.791 154.655 152.61 154.757C152.434 154.859 152.29 154.991 152.179 155.153C152.072 155.311 152.019 155.508 152.019 155.744C152.019 155.949 152.07 156.143 152.172 156.329C152.279 156.514 152.441 156.665 152.659 156.781C152.881 156.897 153.171 156.955 153.528 156.955Z" fill="#5A6273"/>
<path d="M103.47 196.53C103.763 196.823 104.237 196.823 104.53 196.53L109.303 191.757C109.596 191.464 109.596 190.99 109.303 190.697C109.01 190.404 108.536 190.404 108.243 190.697L104 194.939L99.7574 190.697C99.4645 190.404 98.9896 190.404 98.6967 190.697C98.4038 190.99 98.4038 191.464 98.6967 191.757L103.47 196.53ZM103.25 177L103.25 196L104.75 196L104.75 177L103.25 177Z" fill="#5A6273"/>
<path d="M357.47 196.53C357.763 196.823 358.237 196.823 358.53 196.53L363.303 191.757C363.596 191.464 363.596 190.99 363.303 190.697C363.01 190.404 362.536 190.404 362.243 190.697L358 194.939L353.757 190.697C353.464 190.404 352.99 190.404 352.697 190.697C352.404 190.99 352.404 191.464 352.697 191.757L357.47 196.53ZM357.25 177L357.25 196L358.75 196L358.75 177L357.25 177Z" fill="#5A6273"/>
<path d="M59.1037 105V96.36H64.6837V97.716H60.5497V99.846H63.9637V101.202H60.5497V103.644H64.6837V105H59.1037ZM66.1232 105V96.36H67.5872L71.5952 102.45V96.36H73.0592V105H71.5952L67.5872 98.91V105H66.1232ZM76.8125 105V97.716H74.0165V96.36H81.0545V97.716H78.2585V105H76.8125ZM82.0138 105V96.36H87.5938V97.716H83.4598V99.846H86.8738V101.202H83.4598V103.644H87.5938V105H82.0138ZM89.0334 105V96.36H90.4974L94.5054 102.45V96.36H95.9694V105H94.5054L90.4974 98.91V105H89.0334ZM97.6466 105V96.36H100.401C100.473 96.36 100.615 96.362 100.827 96.366C101.043 96.37 101.251 96.384 101.451 96.408C102.135 96.496 102.713 96.74 103.185 97.14C103.661 97.536 104.021 98.042 104.265 98.658C104.509 99.274 104.631 99.948 104.631 100.68C104.631 101.412 104.509 102.086 104.265 102.702C104.021 103.318 103.661 103.826 103.185 104.226C102.713 104.622 102.135 104.864 101.451 104.952C101.255 104.976 101.049 104.99 100.833 104.994C100.617 104.998 100.473 105 100.401 105H97.6466ZM99.1166 103.638H100.401C100.521 103.638 100.673 103.634 100.857 103.626C101.045 103.618 101.211 103.6 101.355 103.572C101.763 103.496 102.095 103.314 102.351 103.026C102.607 102.738 102.795 102.388 102.915 101.976C103.039 101.564 103.101 101.132 103.101 100.68C103.101 100.212 103.039 99.772 102.915 99.36C102.791 98.948 102.599 98.602 102.339 98.322C102.083 98.042 101.755 97.864 101.355 97.788C101.211 97.756 101.045 97.738 100.857 97.734C100.673 97.726 100.521 97.722 100.401 97.722H99.1166V103.638ZM106.169 105V96.36H107.615V105H106.169ZM109.412 105V96.36H110.714L113.702 102.48L116.69 96.36H117.992V105H116.642V99.462L113.99 105H113.414L110.768 99.462V105H109.412ZM119.678 105V96.36H125.258V97.716H121.124V99.846H124.538V101.202H121.124V103.644H125.258V105H119.678ZM126.697 105V96.36H128.161L132.169 102.45V96.36H133.633V105H132.169L128.161 98.91V105H126.697ZM137.387 105V97.716H134.591V96.36H141.629V97.716H138.833V105H137.387ZM146.242 105.18C145.378 105.18 144.638 104.992 144.022 104.616C143.406 104.236 142.932 103.708 142.6 103.032C142.272 102.356 142.108 101.572 142.108 100.68C142.108 99.788 142.272 99.004 142.6 98.328C142.932 97.652 143.406 97.126 144.022 96.75C144.638 96.37 145.378 96.18 146.242 96.18C147.106 96.18 147.846 96.37 148.462 96.75C149.082 97.126 149.556 97.652 149.884 98.328C150.216 99.004 150.382 99.788 150.382 100.68C150.382 101.572 150.216 102.356 149.884 103.032C149.556 103.708 149.082 104.236 148.462 104.616C147.846 104.992 147.106 105.18 146.242 105.18ZM146.242 103.818C146.822 103.822 147.304 103.694 147.688 103.434C148.076 103.174 148.366 102.808 148.558 102.336C148.754 101.864 148.852 101.312 148.852 100.68C148.852 100.048 148.754 99.5 148.558 99.036C148.366 98.568 148.076 98.204 147.688 97.944C147.304 97.684 146.822 97.55 146.242 97.542C145.662 97.538 145.18 97.666 144.796 97.926C144.412 98.186 144.122 98.552 143.926 99.024C143.734 99.496 143.638 100.048 143.638 100.68C143.638 101.312 143.734 101.862 143.926 102.33C144.118 102.794 144.406 103.156 144.79 103.416C145.178 103.676 145.662 103.81 146.242 103.818Z" fill="#5A6273"/>
<path d="M318.906 105V96.36H324.486V97.716H320.352V99.846H323.766V101.202H320.352V103.644H324.486V105H318.906ZM325.206 105L328.134 100.632L325.29 96.36H327.06L329.028 99.402L330.978 96.36H332.76L329.916 100.632L332.832 105H331.062L329.028 101.862L326.988 105H325.206ZM333.789 105V96.36H337.359C337.443 96.36 337.551 96.364 337.683 96.372C337.815 96.376 337.937 96.388 338.049 96.408C338.549 96.484 338.961 96.65 339.285 96.906C339.613 97.162 339.855 97.486 340.011 97.878C340.171 98.266 340.251 98.698 340.251 99.174C340.251 99.646 340.171 100.078 340.011 100.47C339.851 100.858 339.607 101.18 339.279 101.436C338.955 101.692 338.545 101.858 338.049 101.934C337.937 101.95 337.813 101.962 337.677 101.97C337.545 101.978 337.439 101.982 337.359 101.982H335.235V105H333.789ZM335.235 100.632H337.299C337.379 100.632 337.469 100.628 337.569 100.62C337.669 100.612 337.761 100.596 337.845 100.572C338.085 100.512 338.273 100.406 338.409 100.254C338.549 100.102 338.647 99.93 338.703 99.738C338.763 99.546 338.793 99.358 338.793 99.174C338.793 98.99 338.763 98.802 338.703 98.61C338.647 98.414 338.549 98.24 338.409 98.088C338.273 97.936 338.085 97.83 337.845 97.77C337.761 97.746 337.669 97.732 337.569 97.728C337.469 97.72 337.379 97.716 337.299 97.716H335.235V100.632ZM341.573 105V96.36H343.019V103.644H346.835V105H341.573ZM351.271 105.18C350.407 105.18 349.667 104.992 349.051 104.616C348.435 104.236 347.961 103.708 347.629 103.032C347.301 102.356 347.137 101.572 347.137 100.68C347.137 99.788 347.301 99.004 347.629 98.328C347.961 97.652 348.435 97.126 349.051 96.75C349.667 96.37 350.407 96.18 351.271 96.18C352.135 96.18 352.875 96.37 353.491 96.75C354.111 97.126 354.585 97.652 354.913 98.328C355.245 99.004 355.411 99.788 355.411 100.68C355.411 101.572 355.245 102.356 354.913 103.032C354.585 103.708 354.111 104.236 353.491 104.616C352.875 104.992 352.135 105.18 351.271 105.18ZM351.271 103.818C351.851 103.822 352.333 103.694 352.717 103.434C353.105 103.174 353.395 102.808 353.587 102.336C353.783 101.864 353.881 101.312 353.881 100.68C353.881 100.048 353.783 99.5 353.587 99.036C353.395 98.568 353.105 98.204 352.717 97.944C352.333 97.684 351.851 97.55 351.271 97.542C350.691 97.538 350.209 97.666 349.825 97.926C349.441 98.186 349.151 98.552 348.955 99.024C348.763 99.496 348.667 100.048 348.667 100.68C348.667 101.312 348.763 101.862 348.955 102.33C349.147 102.794 349.435 103.156 349.819 103.416C350.207 103.676 350.691 103.81 351.271 103.818ZM356.606 105V96.36H360.176C360.26 96.36 360.368 96.364 360.5 96.372C360.632 96.376 360.754 96.388 360.866 96.408C361.366 96.484 361.778 96.65 362.102 96.906C362.43 97.162 362.672 97.486 362.828 97.878C362.988 98.266 363.068 98.698 363.068 99.174C363.068 99.878 362.89 100.484 362.534 100.992C362.178 101.496 361.632 101.808 360.896 101.928L360.278 101.982H358.052V105H356.606ZM361.568 105L359.864 101.484L361.334 101.16L363.206 105H361.568ZM358.052 100.632H360.116C360.196 100.632 360.286 100.628 360.386 100.62C360.486 100.612 360.578 100.596 360.662 100.572C360.902 100.512 361.09 100.406 361.226 100.254C361.366 100.102 361.464 99.93 361.52 99.738C361.58 99.546 361.61 99.358 361.61 99.174C361.61 98.99 361.58 98.802 361.52 98.61C361.464 98.414 361.366 98.24 361.226 98.088C361.09 97.936 360.902 97.83 360.662 97.77C360.578 97.746 360.486 97.732 360.386 97.728C360.286 97.72 360.196 97.716 360.116 97.716H358.052V100.632ZM363.928 105L366.652 96.36H368.77L371.494 105H370.006L367.534 97.248H367.858L365.416 105H363.928ZM365.446 103.128V101.778H369.982V103.128H365.446ZM375.872 107.898C375.708 107.898 375.558 107.876 375.422 107.832C375.286 107.792 375.158 107.742 375.038 107.682L375.356 106.824C375.52 106.88 375.65 106.908 375.746 106.908C375.866 106.908 375.958 106.872 376.022 106.8C376.086 106.732 376.118 106.66 376.118 106.584C376.118 106.428 376.04 106.314 375.884 106.242C375.728 106.17 375.544 106.104 375.332 106.044L375.758 104.814L376.634 104.808L376.394 105.504C376.626 105.616 376.806 105.764 376.934 105.948C377.062 106.132 377.126 106.354 377.126 106.614C377.126 106.994 377 107.302 376.748 107.538C376.5 107.778 376.208 107.898 375.872 107.898ZM375.998 105.18C375.134 105.18 374.394 104.992 373.778 104.616C373.162 104.236 372.688 103.708 372.356 103.032C372.028 102.356 371.864 101.572 371.864 100.68C371.864 99.788 372.028 99.004 372.356 98.328C372.688 97.652 373.162 97.126 373.778 96.75C374.394 96.37 375.134 96.18 375.998 96.18C376.994 96.18 377.824 96.43 378.488 96.93C379.152 97.426 379.618 98.096 379.886 98.94L378.428 99.342C378.26 98.778 377.974 98.338 377.57 98.022C377.166 97.702 376.642 97.542 375.998 97.542C375.418 97.542 374.934 97.672 374.546 97.932C374.162 98.192 373.872 98.558 373.676 99.03C373.484 99.498 373.386 100.048 373.382 100.68C373.382 101.312 373.478 101.864 373.67 102.336C373.866 102.804 374.158 103.168 374.546 103.428C374.934 103.688 375.418 103.818 375.998 103.818C376.642 103.818 377.166 103.658 377.57 103.338C377.974 103.018 378.26 102.578 378.428 102.018L379.886 102.42C379.618 103.264 379.152 103.936 378.488 104.436C377.824 104.932 376.994 105.18 375.998 105.18ZM385.157 95.1C384.969 95.1 384.787 95.058 384.611 94.974C384.439 94.89 384.273 94.794 384.113 94.686C383.953 94.574 383.803 94.476 383.663 94.392C383.527 94.308 383.401 94.266 383.285 94.266C383.157 94.266 383.069 94.332 383.021 94.464C382.977 94.592 382.981 94.75 383.033 94.938H382.121C382.005 94.458 382.031 94.052 382.199 93.72C382.371 93.384 382.691 93.216 383.159 93.216C383.347 93.216 383.527 93.258 383.699 93.342C383.875 93.426 384.041 93.524 384.197 93.636C384.357 93.744 384.507 93.84 384.647 93.924C384.787 94.008 384.915 94.05 385.031 94.05C385.155 94.05 385.241 93.986 385.289 93.858C385.341 93.726 385.339 93.564 385.283 93.372H386.195C386.315 93.848 386.289 94.256 386.117 94.596C385.945 94.932 385.625 95.1 385.157 95.1ZM380.369 105L383.093 96.36H385.211L387.935 105H386.447L383.975 97.248H384.299L381.857 105H380.369ZM381.887 103.128V101.778H386.423V103.128H381.887ZM392.439 105.18C391.575 105.18 390.835 104.992 390.219 104.616C389.603 104.236 389.129 103.708 388.797 103.032C388.469 102.356 388.305 101.572 388.305 100.68C388.305 99.788 388.469 99.004 388.797 98.328C389.129 97.652 389.603 97.126 390.219 96.75C390.835 96.37 391.575 96.18 392.439 96.18C393.303 96.18 394.043 96.37 394.659 96.75C395.279 97.126 395.753 97.652 396.081 98.328C396.413 99.004 396.579 99.788 396.579 100.68C396.579 101.572 396.413 102.356 396.081 103.032C395.753 103.708 395.279 104.236 394.659 104.616C394.043 104.992 393.303 105.18 392.439 105.18ZM392.439 103.818C393.019 103.822 393.501 103.694 393.885 103.434C394.273 103.174 394.563 102.808 394.755 102.336C394.951 101.864 395.049 101.312 395.049 100.68C395.049 100.048 394.951 99.5 394.755 99.036C394.563 98.568 394.273 98.204 393.885 97.944C393.501 97.684 393.019 97.55 392.439 97.542C391.859 97.538 391.377 97.666 390.993 97.926C390.609 98.186 390.319 98.552 390.123 99.024C389.931 99.496 389.835 100.048 389.835 100.68C389.835 101.312 389.931 101.862 390.123 102.33C390.315 102.794 390.603 103.156 390.987 103.416C391.375 103.676 391.859 103.81 392.439 103.818Z" fill="#5A6273"/>
<rect x="184" y="5" width="100" height="37.5652" rx="13.913" fill="#F1F1F1"/>
<path d="M207.565 13.7393C205.775 13.7393 204.106 14.1954 202.557 15.1075C201.06 15.9681 199.881 17.147 199.02 18.6442C198.108 20.1931 197.652 21.8625 197.652 23.6524C197.652 25.4422 198.108 27.1116 199.02 28.6605C199.881 30.1578 201.06 31.3453 202.557 32.223C204.106 33.118 205.775 33.5654 207.565 33.5654C209.355 33.5654 211.024 33.118 212.573 32.223C214.071 31.3453 215.258 30.1578 216.136 28.6605C217.031 27.1116 217.478 25.4422 217.478 23.6524C217.478 21.8625 217.031 20.1931 216.136 18.6442C215.258 17.147 214.071 15.9681 212.573 15.1075C211.024 14.1954 209.355 13.7393 207.565 13.7393ZM207.565 15.3915C209.063 15.3915 210.457 15.7701 211.747 16.5274C212.986 17.2502 213.967 18.2312 214.69 19.4703C215.447 20.7611 215.826 22.1551 215.826 23.6524C215.826 25.1497 215.447 26.5437 214.69 27.8345C213.967 29.0736 212.986 30.0546 211.747 30.7774C210.457 31.5346 209.063 31.9133 207.565 31.9133C206.068 31.9133 204.674 31.5346 203.383 30.7774C202.144 30.0546 201.163 29.0736 200.44 27.8345C199.683 26.5437 199.304 25.1497 199.304 23.6524C199.304 22.1551 199.683 20.7611 200.44 19.4703C201.163 18.2312 202.144 17.2502 203.383 16.5274C204.674 15.7701 206.068 15.3915 207.565 15.3915ZM204.261 17.973V29.3317L205.5 28.6089L212.935 24.3752L214.174 23.6524L212.935 22.9296L205.5 18.6959L204.261 17.973ZM205.913 20.8127L210.844 23.6524L205.913 26.4921V20.8127Z" fill="#5A6273"/>
<path d="M224.539 29.7393V19.7219H225.777V24.4245L230.16 19.7219H231.718L227.169 24.5845L232.073 29.7393H230.473L225.777 24.8419V29.7393H224.539ZM233.184 20.8975V19.6175H234.422V20.8975H233.184ZM233.184 29.7393V22.2262H234.422V29.7393H233.184ZM239.674 29.948C238.914 29.948 238.267 29.7787 237.734 29.4401C237.205 29.0969 236.801 28.6262 236.523 28.028C236.245 27.4297 236.101 26.748 236.092 25.9827C236.101 25.199 236.247 24.5103 236.53 23.9166C236.818 23.3184 237.228 22.8523 237.761 22.5184C238.295 22.1845 238.937 22.0175 239.688 22.0175C240.481 22.0175 241.163 22.2123 241.734 22.6019C242.309 22.9914 242.694 23.5248 242.888 24.2019L241.664 24.5706C241.506 24.1346 241.249 23.7961 240.892 23.5549C240.539 23.3137 240.134 23.1932 239.674 23.1932C239.16 23.1932 238.735 23.3137 238.401 23.5549C238.068 23.7914 237.819 24.1207 237.657 24.5427C237.495 24.9601 237.411 25.4401 237.407 25.9827C237.416 26.8175 237.608 27.4923 237.984 28.0071C238.364 28.5172 238.928 28.7723 239.674 28.7723C240.166 28.7723 240.574 28.661 240.899 28.4384C241.223 28.2111 241.469 27.8842 241.636 27.4575L242.888 27.7845C242.629 28.4848 242.223 29.0204 241.671 29.3914C241.119 29.7624 240.454 29.948 239.674 29.948ZM244.301 29.7393L244.308 19.7219H245.56V25.8436L248.712 22.2262H250.319L247 25.9827L250.708 29.7393H248.976L245.56 26.1219V29.7393H244.301ZM254.465 29.948C253.718 29.948 253.073 29.7787 252.531 29.4401C251.993 29.1016 251.578 28.6332 251.286 28.0349C250.993 27.4366 250.847 26.7503 250.847 25.9758C250.847 25.1874 250.996 24.4964 251.293 23.9027C251.589 23.3091 252.009 22.8477 252.552 22.5184C253.094 22.1845 253.732 22.0175 254.465 22.0175C255.216 22.0175 255.863 22.1868 256.406 22.5253C256.948 22.8593 257.363 23.3253 257.651 23.9236C257.943 24.5172 258.089 25.2013 258.089 25.9758C258.089 26.7595 257.943 27.4506 257.651 28.0488C257.359 28.6424 256.941 29.1085 256.399 29.4471C255.856 29.781 255.211 29.948 254.465 29.948ZM254.465 28.7723C255.244 28.7723 255.824 28.5126 256.204 27.9932C256.584 27.4738 256.774 26.8013 256.774 25.9758C256.774 25.1271 256.582 24.4523 256.197 23.9514C255.812 23.4459 255.235 23.1932 254.465 23.1932C253.941 23.1932 253.509 23.3114 253.171 23.548C252.832 23.7845 252.579 24.1114 252.413 24.5288C252.246 24.9462 252.162 25.4285 252.162 25.9758C252.162 26.8198 252.357 27.4969 252.746 28.0071C253.136 28.5172 253.709 28.7723 254.465 28.7723ZM260.337 29.7393V21.8158C260.337 21.621 260.346 21.4239 260.365 21.2245C260.384 21.0204 260.425 20.8233 260.49 20.6332C260.555 20.4384 260.662 20.2598 260.81 20.0975C260.982 19.9074 261.17 19.7729 261.374 19.694C261.578 19.6106 261.784 19.5595 261.993 19.541C262.206 19.5224 262.408 19.5132 262.598 19.5132H263.551V20.5427H262.668C262.301 20.5427 262.028 20.6332 261.847 20.814C261.666 20.9903 261.575 21.2593 261.575 21.621V29.7393H260.337ZM259.064 23.2488V22.2262H263.551V23.2488H259.064ZM264.755 29.7393V21.8158C264.755 21.621 264.764 21.4239 264.782 21.2245C264.801 21.0204 264.843 20.8233 264.908 20.6332C264.973 20.4384 265.079 20.2598 265.228 20.0975C265.399 19.9074 265.587 19.7729 265.791 19.694C265.995 19.6106 266.202 19.5595 266.41 19.541C266.624 19.5224 266.825 19.5132 267.015 19.5132H267.969V20.5427H267.085C266.719 20.5427 266.445 20.6332 266.264 20.814C266.083 20.9903 265.993 21.2593 265.993 21.621V29.7393H264.755ZM263.482 23.2488V22.2262H267.969V23.2488H263.482Z" fill="#5A6273"/>
<path d="M32.9709 26V17.36H36.5409C36.6249 17.36 36.7329 17.364 36.8649 17.372C36.9969 17.376 37.1189 17.388 37.2309 17.408C37.7309 17.484 38.1429 17.65 38.4669 17.906C38.7949 18.162 39.0369 18.486 39.1929 18.878C39.3529 19.266 39.4329 19.698 39.4329 20.174C39.4329 20.646 39.3529 21.078 39.1929 21.47C39.0329 21.858 38.7889 22.18 38.4609 22.436C38.1369 22.692 37.7269 22.858 37.2309 22.934C37.1189 22.95 36.9949 22.962 36.8589 22.97C36.7269 22.978 36.6209 22.982 36.5409 22.982H34.4169V26H32.9709ZM34.4169 21.632H36.4809C36.5609 21.632 36.6509 21.628 36.7509 21.62C36.8509 21.612 36.9429 21.596 37.0269 21.572C37.2669 21.512 37.4549 21.406 37.5909 21.254C37.7309 21.102 37.8289 20.93 37.8849 20.738C37.9449 20.546 37.9749 20.358 37.9749 20.174C37.9749 19.99 37.9449 19.802 37.8849 19.61C37.8289 19.414 37.7309 19.24 37.5909 19.088C37.4549 18.936 37.2669 18.83 37.0269 18.77C36.9429 18.746 36.8509 18.732 36.7509 18.728C36.6509 18.72 36.5609 18.716 36.4809 18.716H34.4169V21.632ZM40.7549 26V17.36H42.2009V24.644H46.0169V26H40.7549ZM46.4334 26L49.1574 17.36H51.2754L53.9994 26H52.5114L50.0394 18.248H50.3634L47.9214 26H46.4334ZM47.9514 24.128V22.778H52.4874V24.128H47.9514ZM55.0841 26V17.36H56.5481L60.5561 23.45V17.36H62.0201V26H60.5561L56.5481 19.91V26H55.0841ZM63.6974 26V17.36H69.2774V18.716H65.1434V20.846H68.5574V22.202H65.1434V24.644H69.2774V26H63.6974ZM72.445 26.18C71.785 26.18 71.235 26.008 70.795 25.664C70.359 25.32 70.053 24.856 69.877 24.272L71.305 23.93C71.349 24.174 71.477 24.384 71.689 24.56C71.901 24.736 72.135 24.824 72.391 24.824C72.559 24.824 72.737 24.78 72.925 24.692C73.113 24.6 73.253 24.454 73.345 24.254C73.401 24.126 73.433 23.974 73.441 23.798C73.453 23.618 73.459 23.41 73.459 23.174V17.36H74.923V23.174C74.923 23.442 74.921 23.678 74.917 23.882C74.917 24.082 74.897 24.272 74.857 24.452C74.821 24.628 74.747 24.81 74.635 24.998C74.399 25.406 74.091 25.706 73.711 25.898C73.331 26.086 72.909 26.18 72.445 26.18ZM75.8943 26L78.6183 17.36H80.7363L83.4603 26H81.9723L79.5003 18.248H79.8243L77.3823 26H75.8943ZM77.4123 24.128V22.778H81.9483V24.128H77.4123ZM84.5451 26V17.36H85.8471L88.8351 23.48L91.8231 17.36H93.1251V26H91.7751V20.462L89.1231 26H88.5471L85.9011 20.462V26H84.5451ZM94.8107 26V17.36H100.391V18.716H96.2567V20.846H99.6707V22.202H96.2567V24.644H100.391V26H94.8107ZM101.83 26V17.36H103.294L107.302 23.45V17.36H108.766V26H107.302L103.294 19.91V26H101.83ZM112.52 26V18.716H109.724V17.36H116.762V18.716H113.966V26H112.52ZM121.375 26.18C120.511 26.18 119.771 25.992 119.155 25.616C118.539 25.236 118.065 24.708 117.733 24.032C117.405 23.356 117.241 22.572 117.241 21.68C117.241 20.788 117.405 20.004 117.733 19.328C118.065 18.652 118.539 18.126 119.155 17.75C119.771 17.37 120.511 17.18 121.375 17.18C122.239 17.18 122.979 17.37 123.595 17.75C124.215 18.126 124.689 18.652 125.017 19.328C125.349 20.004 125.515 20.788 125.515 21.68C125.515 22.572 125.349 23.356 125.017 24.032C124.689 24.708 124.215 25.236 123.595 25.616C122.979 25.992 122.239 26.18 121.375 26.18ZM121.375 24.818C121.955 24.822 122.437 24.694 122.821 24.434C123.209 24.174 123.499 23.808 123.691 23.336C123.887 22.864 123.985 22.312 123.985 21.68C123.985 21.048 123.887 20.5 123.691 20.036C123.499 19.568 123.209 19.204 122.821 18.944C122.437 18.684 121.955 18.55 121.375 18.542C120.795 18.538 120.313 18.666 119.929 18.926C119.545 19.186 119.255 19.552 119.059 20.024C118.867 20.496 118.771 21.048 118.771 21.68C118.771 22.312 118.867 22.862 119.059 23.33C119.251 23.794 119.539 24.156 119.923 24.416C120.311 24.676 120.795 24.81 121.375 24.818Z" fill="#5A6273"/>
</svg>
