<svg width="24" height="24" viewBox="0 0 24 24" fill="none" xmlns="http://www.w3.org/2000/svg">
<path d="M24 9C24 9.26522 23.8946 9.51957 23.7071 9.70711C23.5196 9.89464 23.2652 10 23 10C22.7348 10 22.4804 9.89464 22.2929 9.70711C22.1054 9.51957 22 9.26522 22 9V3.415L13.7087 11.7075C13.5211 11.8951 13.2666 12.0006 13.0012 12.0006C12.7359 12.0006 12.4814 11.8951 12.2938 11.7075C12.1061 11.5199 12.0007 11.2654 12.0007 11C12.0007 10.7346 12.1061 10.4801 12.2938 10.2925L20.585 2H15C14.7348 2 14.4804 1.89464 14.2929 1.70711C14.1054 1.51957 14 1.26522 14 1C14 0.734784 14.1054 0.48043 14.2929 0.292893C14.4804 0.105357 14.7348 0 15 0H23C23.2652 0 23.5196 0.105357 23.7071 0.292893C23.8946 0.48043 24 0.734784 24 1V9ZM19 12C18.7348 12 18.4804 12.1054 18.2929 12.2929C18.1054 12.4804 18 12.7348 18 13V22H2V6H11C11.2652 6 11.5196 5.89464 11.7071 5.70711C11.8946 5.51957 12 5.26522 12 5C12 4.73478 11.8946 4.48043 11.7071 4.29289C11.5196 4.10536 11.2652 4 11 4H2C1.46957 4 0.960859 4.21071 0.585786 4.58579C0.210714 4.96086 0 5.46957 0 6V22C0 22.5304 0.210714 23.0391 0.585786 23.4142C0.960859 23.7893 1.46957 24 2 24H18C18.5304 24 19.0391 23.7893 19.4142 23.4142C19.7893 23.0391 20 22.5304 20 22V13C20 12.7348 19.8946 12.4804 19.7071 12.2929C19.5196 12.1054 19.2652 12 19 12Z" fill="white"/>
</svg>
